<svg width="8" height="8" viewBox="0 0 8 8" fill="none" xmlns="http://www.w3.org/2000/svg">
<path d="M4.14645 0.646447C4.34171 0.451184 4.65829 0.451184 4.85355 0.646447L7.85355 3.64645C7.94732 3.74022 8 3.86739 8 4C8 4.13261 7.94732 4.25979 7.85355 4.35355L4.85355 7.35355C4.65829 7.54882 4.34171 7.54882 4.14645 7.35355C3.95118 7.15829 3.95118 6.84171 4.14645 6.64645L6.29289 4.5L0.5 4.5C0.223858 4.5 0 4.27614 0 4C0 3.72386 0.223858 3.5 0.5 3.5L6.29289 3.5L4.14645 1.35355C3.95118 1.15829 3.95118 0.841709 4.14645 0.646447Z" fill="#BBBBBB"/>
</svg>