<svg width="24" height="25" viewBox="0 0 24 25" fill="none" xmlns="http://www.w3.org/2000/svg">
<path fill-rule="evenodd" clip-rule="evenodd" d="M7.35305 12.4959L7.2599 16.206C7.25589 16.404 7.33102 16.595 7.46924 16.737C7.60847 16.88 7.79878 16.96 7.99711 16.96H11.6831C12.4494 16.96 13.1706 16.662 13.7135 16.12L21.0975 8.74785C21.6805 8.16685 22 7.39383 22 6.57182C22 5.75181 21.6805 4.9778 21.0975 4.39679L19.9006 3.20177C18.6986 2.00175 16.7444 2.00175 15.5434 3.20177L8.19343 10.5399C7.67057 11.0619 7.37208 11.7569 7.35305 12.4959ZM8.82746 12.5329C8.83748 12.1739 8.98172 11.8349 9.23713 11.5809L14.9385 5.88781L16.8115 7.75984C16.9558 7.90284 17.1441 7.97484 17.3334 7.97484C17.5217 7.97484 17.711 7.90284 17.8552 7.75984C18.1427 7.47084 18.1427 7.00583 17.8552 6.71782L15.9812 4.8468L16.5861 4.24279C17.2122 3.61778 18.2308 3.61778 18.8579 4.24279L20.0548 5.4388C20.6808 6.06381 20.6808 7.08083 20.0548 7.70684L12.6707 15.0789C12.4063 15.343 12.0557 15.487 11.6831 15.487H8.75434L8.82746 12.5329ZM2.73841 12.7448C3.14507 12.7448 3.47561 12.4148 3.47561 12.0088V8.23975C3.47561 5.54971 5.1173 3.81168 7.65845 3.81168H11.3355C11.7431 3.81168 12.0737 3.48268 12.0737 3.07567C12.0737 2.66966 11.7431 2.33966 11.3355 2.33966H7.65845C4.27392 2.33966 2.0002 4.71069 2.0002 8.23975V12.0088C2.0002 12.4148 2.33074 12.7448 2.73841 12.7448ZM21.2585 11.7116C20.8508 11.7116 20.5213 12.0406 20.5213 12.4476V16.4017C20.5213 19.0917 18.8786 20.8287 16.3364 20.8287H7.65825C5.1171 20.8287 3.47641 19.0917 3.47641 16.4017C3.47641 15.9957 3.14587 15.6657 2.73821 15.6657C2.33154 15.6657 2 15.9957 2 16.4017C2 19.9307 4.27372 22.3018 7.65825 22.3018H16.3364C19.722 22.3018 21.9957 19.9307 21.9957 16.4017V12.4476C21.9957 12.0406 21.6652 11.7116 21.2585 11.7116Z" fill="white"/>
</svg>
