<svg width="30" height="34" viewBox="0 0 30 34" fill="none" xmlns="http://www.w3.org/2000/svg">
<path d="M26.6667 33.6667H3.33333C1.49238 33.6667 0 32.1743 0 30.3333V7.00001C0 5.15906 1.49238 3.66668 3.33333 3.66668H6.66667V0.333344H10V3.66668H20V0.333344H23.3333V3.66668H26.6667C28.5076 3.66668 30 5.15906 30 7.00001V30.3333C30 32.1743 28.5076 33.6667 26.6667 33.6667ZM3.33333 13.6667V30.3333H26.6667V13.6667H3.33333ZM3.33333 7.00001V10.3333H26.6667V7.00001H3.33333ZM13.3333 27.69L7.155 21.5117L9.51167 19.155L13.3333 22.9767L20.4883 15.8217L22.845 18.1783L13.3333 27.6883V27.69Z" fill="#01C2FF"/>
</svg>
