<svg width="26" height="27" viewBox="0 0 26 27" fill="none" xmlns="http://www.w3.org/2000/svg">
<path d="M6.92406 21.8881L7.85922 22.4345C9.43627 23.3543 11.2299 23.8371 13.0556 23.8334C15.0993 23.8334 17.0972 23.2273 18.7965 22.0919C20.4958 20.9565 21.8202 19.3426 22.6024 17.4544C23.3845 15.5663 23.5891 13.4886 23.1904 11.4841C22.7917 9.47964 21.8075 7.63841 20.3624 6.19327C18.9172 4.74813 17.076 3.76397 15.0715 3.36526C13.0671 2.96655 10.9894 3.17118 9.1012 3.95329C7.21303 4.73539 5.59919 6.05984 4.46375 7.75915C3.32831 9.45846 2.72227 11.4563 2.72227 13.5C2.72227 15.3549 3.20922 17.1335 4.12243 18.6977L4.66752 19.6329L3.82406 22.7342L6.92406 21.8881ZM0.1441 26.4167L1.89043 19.9997C0.739736 18.0271 0.135182 15.7837 0.138933 13.5C0.138933 6.36617 5.92173 0.583374 13.0556 0.583374C20.1895 0.583374 25.9723 6.36617 25.9723 13.5C25.9723 20.6339 20.1895 26.4167 13.0556 26.4167C10.7729 26.4204 8.53045 25.8163 6.55852 24.6665L0.1441 26.4167ZM8.39397 7.43954C8.56706 7.42662 8.74143 7.42662 8.91452 7.43437C8.98427 7.43954 9.05402 7.44729 9.12377 7.45504C9.32914 7.47829 9.55518 7.60358 9.63139 7.77667C10.0163 8.64983 10.3909 9.52946 10.7526 10.4117C10.8326 10.608 10.7848 10.8599 10.6324 11.1053C10.5276 11.2712 10.4142 11.4316 10.2927 11.5858C10.1468 11.7731 9.83289 12.1167 9.83289 12.1167C9.83289 12.1167 9.70502 12.2691 9.7541 12.459C9.77218 12.5313 9.8316 12.6359 9.88585 12.7237L9.96206 12.8465C10.2927 13.398 10.7371 13.9573 11.2796 14.4843C11.4346 14.6341 11.5857 14.7878 11.7484 14.9312C12.3529 15.4647 13.0375 15.9 13.7763 16.2229L13.7828 16.2255C13.8926 16.2732 13.9481 16.2991 14.1083 16.3675C14.1884 16.4011 14.2711 16.4308 14.355 16.4528C14.4418 16.4749 14.5331 16.4707 14.6175 16.4408C14.7019 16.4109 14.7756 16.3567 14.8291 16.2849C15.7642 15.1521 15.8495 15.0785 15.8572 15.0785V15.081C15.9222 15.0204 15.9994 14.9745 16.0836 14.9462C16.1678 14.9179 16.2571 14.9079 16.3455 14.917C16.423 14.9222 16.5018 14.9364 16.5741 14.9687C17.26 15.2825 18.3824 15.7721 18.3824 15.7721L19.1342 16.1092C19.2608 16.1699 19.3757 16.3133 19.3796 16.4515C19.3848 16.538 19.3925 16.6775 19.3628 16.9333C19.3215 17.2678 19.2207 17.6695 19.12 17.8801C19.051 18.0238 18.9594 18.1555 18.8487 18.2702C18.7184 18.407 18.5757 18.5315 18.4225 18.6422C18.3695 18.682 18.3156 18.7208 18.261 18.7584C18.1004 18.8603 17.9353 18.9552 17.7663 19.0426C17.4337 19.2192 17.0664 19.3206 16.6903 19.3397C16.4514 19.3526 16.2124 19.3707 15.9722 19.3577C15.9619 19.3577 15.2385 19.2454 15.2385 19.2454C13.4021 18.7623 11.7037 17.8574 10.2785 16.6026C9.9866 16.3456 9.71664 16.0692 9.44022 15.794C8.29064 14.6509 7.42264 13.4174 6.89564 12.2523C6.6259 11.6805 6.4802 11.058 6.4681 10.4259C6.46278 9.64164 6.71913 8.87803 7.1966 8.25587C7.29089 8.13446 7.38002 8.00787 7.53372 7.86192C7.69777 7.70692 7.8011 7.62425 7.91347 7.56742C8.06289 7.49254 8.22588 7.44861 8.39268 7.43825L8.39397 7.43954Z" fill="#AFAFAF"/>
</svg>
