<svg width="24" height="24" viewBox="0 0 24 24" fill="none" xmlns="http://www.w3.org/2000/svg">
<path fill-rule="evenodd" clip-rule="evenodd" d="M2.24445 4.13758C1.62644 4.98675 1.66964 6.07459 2.33325 7.53184C2.53846 7.98401 2.33925 8.51654 1.88684 8.72283C1.43323 8.92793 0.901617 8.73003 0.695212 8.27666C-0.249212 6.20532 -0.231212 4.47581 0.748013 3.14089C1.11282 2.53041 3.40608 -0.123834 5.37533 0.00450018C5.99455 0.0560737 6.56096 0.343926 7.09257 0.862061C7.65899 1.41498 10.0374 4.30789 10.2283 5.22303C10.4333 6.20686 9.99142 6.97518 9.66869 7.53637L9.66784 7.53784C9.34983 8.09076 9.23943 8.32703 9.34863 8.62568C10.1515 10.5891 11.3923 12.1939 13.0255 13.3597C13.4299 13.6499 13.5223 14.2112 13.2331 14.6154C13.0579 14.8601 12.7819 14.992 12.5011 14.992C12.3187 14.992 12.1363 14.9368 11.9779 14.8241C10.0651 13.4556 8.61541 11.5882 7.66859 9.27215C7.25218 8.12674 7.74659 7.26798 8.1078 6.6407C8.37901 6.17054 8.52901 5.88988 8.46541 5.59004C8.29741 5.15706 6.54296 2.84105 5.83494 2.1514C5.61654 1.93671 5.41133 1.81077 5.25893 1.79878C4.39971 1.77839 2.64286 3.47672 2.24445 4.13758ZM18.7772 13.7681C19.6964 13.9588 22.5872 16.3359 23.1405 16.9009C23.6613 17.4334 23.9493 18.0007 23.9985 18.5848C24.0765 20.7953 21.116 23.1053 20.7764 23.2996C20.1308 23.7649 19.3736 24 18.5215 24C17.6743 24 16.7335 23.7673 15.7147 23.2924C11.7966 21.666 5.87082 16.3923 2.53714 11.5528C2.25513 11.1438 2.35833 10.5837 2.76754 10.3018C3.17795 10.0236 3.73837 10.1243 4.01917 10.5333C7.13325 15.0538 12.8214 20.1428 16.4407 21.6468C17.9047 22.3269 18.9944 22.3688 19.8056 21.7871C20.438 21.4045 22.2344 19.6199 22.202 18.6915C22.1912 18.5824 22.0664 18.3773 21.854 18.1602C21.1628 17.4526 18.8432 15.6979 18.3583 15.5156C17.9755 15.434 17.5771 15.6667 16.9699 16.0493L16.6627 16.24C16.2367 16.4955 15.6835 16.3599 15.4267 15.9329C15.1711 15.5084 15.3079 14.9554 15.7339 14.6988L16.0111 14.5273C16.6831 14.1039 17.6107 13.5258 18.7772 13.7681Z" fill="#01C2FF"/>
</svg>
