<svg width="27" height="27" viewBox="0 0 27 27" fill="none" xmlns="http://www.w3.org/2000/svg">
<path d="M7.02097 24.3875C7.02097 24.0144 7.00221 23.6392 7.02722 23.2661C7.04806 22.9644 6.93134 22.8278 6.63743 22.734C4.80314 22.1468 3.37323 21.054 2.39981 19.4107C1.72237 18.267 1.32425 17.0254 1.14291 15.7246C0.738528 12.8091 0.746866 9.89769 1.38053 7.01075C1.69528 5.57543 2.29767 4.25632 3.29611 3.13498C4.0194 2.31946 4.9428 1.78326 5.93498 1.35715C7.60669 0.639487 9.37844 0.321434 11.1877 0.156291C12.5051 0.0360014 13.8245 0.0543506 15.1398 0.109398C17.3409 0.203183 19.4816 0.574245 21.516 1.46316C23.492 2.32558 24.7573 3.78536 25.4597 5.75281C25.9642 7.16366 26.1976 8.62344 26.2997 10.1097C26.4394 12.1546 26.3102 14.1833 26.0017 16.2037C25.7641 17.7614 25.2054 19.2048 24.1778 20.4444C23.2919 21.5128 22.1663 22.2426 20.8448 22.6851C18.9251 23.3293 16.9428 23.627 14.9188 23.7289C13.862 23.7819 12.8136 23.7351 11.763 23.6943C11.5775 23.6861 11.4587 23.7452 11.3461 23.8757C10.7 24.6158 10.0496 25.3539 9.39512 26.0878C9.15958 26.3529 8.91362 26.6118 8.5947 26.7851C7.99022 27.1133 7.36906 26.8809 7.14395 26.2407C6.93134 25.6352 7.04598 25.0052 7.02097 24.3875ZM8.00898 25.886C8.09027 25.8269 8.11945 25.8126 8.14238 25.7881C9.22836 24.6097 10.3269 23.4435 11.392 22.2488C11.7297 21.8716 12.0673 21.6901 12.6072 21.7126C14.9834 21.8104 17.3242 21.5617 19.615 20.9093C20.601 20.6279 21.4847 20.1835 22.2185 19.4719C23.2544 18.4647 23.7964 17.2129 24.0319 15.8347C24.3487 13.9753 24.4675 12.1037 24.3279 10.2178C24.2299 8.90072 24.0257 7.60608 23.5441 6.36649C23.1023 5.22679 22.4498 4.24001 21.3347 3.61818C20.38 3.08605 19.3566 2.73334 18.2872 2.50295C16.1653 2.04218 14.0184 1.97286 11.861 2.085C10.3727 2.16247 8.91987 2.41732 7.51289 2.91071C5.49725 3.61818 4.16531 4.95563 3.53373 6.96386C3.2044 8.00976 3.02514 9.07809 2.97511 10.1689C2.88965 12.0384 2.82086 13.906 3.21273 15.7552C3.72967 18.1956 5.02409 20.0305 7.5108 20.8828C7.92143 21.0234 8.02357 21.2171 8.01732 21.6127C7.99439 23.0154 8.00898 24.4201 8.00898 25.886Z" fill="#AFAFAF"/>
<path d="M17.4443 19.1558C17.2296 19.1619 17.0337 19.0987 16.8398 19.0212C14.6699 18.1547 12.7127 16.9579 11.0451 15.3452C9.06285 13.4308 7.56415 11.2085 6.64909 8.61719C6.35936 7.79963 6.5407 7.15129 7.21188 6.61712C7.51621 6.37451 7.82887 6.138 8.15404 5.91985C8.75019 5.51617 9.3505 5.57325 9.83617 6.10131C10.449 6.76595 11.0097 7.47546 11.4662 8.25632C11.5641 8.42146 11.6392 8.60292 11.7017 8.78437C11.8414 9.18194 11.7851 9.54484 11.4474 9.83639C11.2223 10.0321 10.9909 10.2217 10.7637 10.4134C10.4844 10.6519 10.401 10.9475 10.4803 11.3023C10.7491 12.5052 11.51 13.386 12.4334 14.1587C12.9836 14.6194 13.5881 14.9905 14.2947 15.1883C14.6616 15.2922 14.9555 15.2025 15.189 14.9151C15.3265 14.7458 15.4599 14.5746 15.5975 14.4074C15.9664 13.9548 16.5001 13.808 17.0253 14.0649C18.0258 14.5583 18.895 15.2392 19.7163 15.9752C19.981 16.2138 20.1186 16.5543 19.981 16.909C19.6183 17.855 19.0014 18.5951 18.055 19.0416C17.8674 19.1313 17.6569 19.166 17.4443 19.1558Z" fill="#AFAFAF"/>
<path d="M19.6954 11.8181C19.635 12.0077 19.7997 12.3176 19.5141 12.3421C19.1973 12.3686 19.3098 12.0363 19.2952 11.867C19.2265 10.9924 19.1097 10.13 18.722 9.33077C17.7611 7.35109 16.1499 6.27868 13.9195 6.09519C13.8049 6.085 13.6882 6.09111 13.5735 6.07888C13.4339 6.06257 13.2734 6.04014 13.2879 5.85461C13.3005 5.69559 13.4443 5.68131 13.5756 5.67316C13.9008 5.65277 14.2239 5.7017 14.5428 5.75267C17.3088 6.20529 19.3515 8.35419 19.6162 11.0841C19.6413 11.3329 19.6704 11.5796 19.6954 11.8181Z" fill="#AFAFAF"/>
<path d="M18.0801 11.2717C18.0801 11.2942 18.0822 11.3166 18.0801 11.339C18.0655 11.4919 18.1093 11.7019 17.8863 11.7121C17.657 11.7223 17.6716 11.5103 17.6674 11.3594C17.657 10.9741 17.6257 10.5908 17.5007 10.2217C17.0213 8.81293 16.027 7.99129 14.5366 7.7344C14.3657 7.70586 14.1927 7.68343 14.0239 7.65489C13.8988 7.63246 13.7967 7.56926 13.8175 7.43062C13.8383 7.28994 13.9572 7.26548 14.0822 7.27567C15.8894 7.40615 17.4444 8.41128 17.9363 10.3013C18.0176 10.6173 18.0468 10.9455 18.101 11.2697C18.0947 11.2697 18.0864 11.2717 18.0801 11.2717Z" fill="#AFAFAF"/>
<path d="M14.6222 8.93731C15.6644 8.98217 16.5023 9.85885 16.4836 10.8762C16.4815 11.0006 16.4856 11.1494 16.3231 11.1739C16.1188 11.2065 16.1209 11.0312 16.0917 10.9048C16.0417 10.6948 16.0229 10.4766 15.9499 10.2768C15.7686 9.7773 15.3851 9.49187 14.864 9.37566C14.7743 9.35527 14.6784 9.35323 14.5909 9.3308C14.4533 9.2941 14.2532 9.29614 14.2949 9.08207C14.3241 8.90469 14.4992 8.94343 14.6222 8.93731Z" fill="#AFAFAF"/>
</svg>
