<svg width="27" height="27" viewBox="0 0 27 27" fill="none" xmlns="http://www.w3.org/2000/svg">
<path d="M13.4999 23.8334C16.2405 23.8334 18.8688 22.7447 20.8067 20.8068C22.7446 18.8689 23.8333 16.2406 23.8333 13.5C23.8333 10.7595 22.7446 8.13115 20.8067 6.19327C18.8688 4.2554 16.2405 3.16671 13.4999 3.16671C10.7593 3.16671 8.13102 4.2554 6.19315 6.19327C4.25527 8.13115 3.16659 10.7595 3.16659 13.5C3.16659 16.2406 4.25527 18.8689 6.19315 20.8068C8.13102 22.7447 10.7593 23.8334 13.4999 23.8334ZM13.4999 26.4167C6.36604 26.4167 0.583252 20.6339 0.583252 13.5C0.583252 6.36617 6.36604 0.583374 13.4999 0.583374C20.6338 0.583374 26.4166 6.36617 26.4166 13.5C26.4166 20.6339 20.6338 26.4167 13.4999 26.4167ZM9.48284 15.0113L6.25625 14.0051C5.55875 13.792 5.55488 13.3115 6.41254 12.9666L18.9843 8.10992C19.7141 7.81283 20.1275 8.18871 19.8911 9.13033L17.7508 19.2312C17.601 19.9506 17.1683 20.1224 16.5676 19.7905L13.2726 17.3518L11.7368 18.8346C11.5792 18.987 11.4513 19.1175 11.2085 19.1498C10.967 19.1834 10.768 19.111 10.6221 18.7106L9.49834 15.0022L9.48284 15.0126V15.0113Z" fill="#AFAFAF"/>
</svg>
