<svg width="41" height="41" viewBox="0 0 41 41" fill="none" xmlns="http://www.w3.org/2000/svg">
<g clip-path="url(#clip0_722_2547)">
<path fill-rule="evenodd" clip-rule="evenodd" d="M4.25 20.5693C4.25 16.2596 5.96205 12.1263 9.00953 9.07886C12.057 6.03139 16.1902 4.31934 20.5 4.31934C24.8098 4.31934 28.943 6.03139 31.9905 9.07886C35.038 12.1263 36.75 16.2596 36.75 20.5693C36.75 24.8791 35.038 29.0123 31.9905 32.0598C28.943 35.1073 24.8098 36.8193 20.5 36.8193C16.1902 36.8193 12.057 35.1073 9.00953 32.0598C5.96205 29.0123 4.25 24.8791 4.25 20.5693ZM20.5 0.569336C15.1957 0.569336 10.1086 2.67647 6.35787 6.42721C2.60714 10.1779 0.5 15.265 0.5 20.5693C0.5 25.8736 2.60714 30.9608 6.35787 34.7116C10.1086 38.4621 15.1957 40.5693 20.5 40.5693C25.8043 40.5693 30.8915 38.4621 34.6423 34.7116C38.3927 30.9608 40.5 25.8736 40.5 20.5693C40.5 15.265 38.3927 10.1779 34.6423 6.42721C30.8915 2.67647 25.8043 0.569336 20.5 0.569336ZM21.75 12.4443C21.75 11.9471 21.5525 11.4701 21.2008 11.1185C20.8492 10.7669 20.3723 10.5693 19.875 10.5693C19.3777 10.5693 18.9008 10.7669 18.5492 11.1185C18.1975 11.4701 18 11.9471 18 12.4443V21.1943C18.0001 21.5688 18.1123 21.9346 18.3221 22.2448C18.532 22.5549 18.8299 22.795 19.1775 22.9343L25.4275 25.4343C25.8853 25.6016 26.3902 25.5838 26.8352 25.3852C27.2802 25.1864 27.6305 24.8222 27.8115 24.3697C27.9925 23.9172 27.9902 23.412 27.8053 22.9611C27.6203 22.5102 27.2668 22.1491 26.82 21.9543L21.75 19.9243V12.4443Z" fill="#01C2FF"/>
</g>
<defs>
<clipPath id="clip0_722_2547">
<rect width="40" height="40" fill="white" transform="translate(0.5 0.569336)"/>
</clipPath>
</defs>
</svg>
