<svg width="38" height="40" viewBox="0 0 38 40" fill="none" xmlns="http://www.w3.org/2000/svg">
<path fill-rule="evenodd" clip-rule="evenodd" d="M17.5715 3.81178C18.0416 3.7709 18.5179 3.75 18.9995 3.75C19.4811 3.75 19.9574 3.7709 20.4275 3.81178C20.5162 3.81948 20.6978 3.90373 20.7694 4.17733L21.4921 6.94055C21.8586 8.3419 22.8649 9.35693 23.9852 9.91183C24.419 10.1267 24.8373 10.3688 25.2375 10.6361C26.279 11.3315 27.6625 11.6959 29.0603 11.3124L31.8175 10.5559C32.0898 10.4812 32.2538 10.5958 32.3053 10.669C32.8515 11.4462 33.331 12.2731 33.736 13.1413C33.773 13.221 33.7913 13.4198 33.59 13.6187L31.553 15.6315C30.5243 16.648 30.1473 18.0252 30.2265 19.2729C30.2418 19.5131 30.2495 19.7555 30.2495 20C30.2495 20.2445 30.2418 20.4869 30.2265 20.7271C30.1473 21.9748 30.5243 23.352 31.553 24.3686L33.59 26.3812C33.7913 26.5802 33.773 26.779 33.736 26.8587C33.331 27.727 32.8515 28.5537 32.3053 29.331C32.2538 29.4042 32.0898 29.5188 31.8175 29.4443L29.0603 28.6875C27.6625 28.304 26.279 28.6685 25.2375 29.364C24.8373 29.6312 24.419 29.8733 23.9852 30.0883C22.8649 30.643 21.8586 31.658 21.4921 33.0595L20.7694 35.8228C20.6978 36.0962 20.5162 36.1805 20.4275 36.1882C19.9574 36.229 19.4811 36.25 18.9995 36.25C18.5179 36.25 18.0416 36.229 17.5715 36.1882C17.4828 36.1805 17.3012 36.0962 17.2296 35.8228L16.5069 33.0592C16.1404 31.658 15.1341 30.643 14.0138 30.0883C13.58 29.8733 13.1619 29.6312 12.7617 29.364C11.7201 28.6685 10.3365 28.304 8.93894 28.6875L6.18146 29.4443C5.90919 29.5188 5.74516 29.4042 5.69371 29.331C5.14754 28.5537 4.66796 27.727 4.26309 26.8587C4.22594 26.779 4.20771 26.5802 4.40894 26.3812L6.44614 24.3684C7.47494 23.3519 7.85201 21.9747 7.77261 20.7269C7.75736 20.4869 7.74959 20.2444 7.74959 20C7.74959 19.7556 7.75736 19.5131 7.77261 19.2731C7.85201 18.0253 7.47494 16.6481 6.44614 15.6316L4.40894 13.6187C4.20771 13.4198 4.22594 13.221 4.26309 13.1414C4.66796 12.2731 5.14754 11.4462 5.69374 10.669C5.74516 10.5958 5.90919 10.4812 6.18146 10.5559L8.93894 11.3125C10.3365 11.6959 11.7201 11.3315 12.7617 10.6361C13.1619 10.3689 13.58 10.1267 14.0138 9.91187C15.1341 9.35698 16.1404 8.34195 16.5069 6.94062L17.2296 4.17733C17.3012 3.90373 17.4828 3.81948 17.5715 3.81178ZM18.9995 0C18.4094 0 17.8247 0.0256125 17.2467 0.0758587C15.3898 0.237286 14.0243 1.61261 13.6017 3.22845L12.8789 5.99177C12.8353 6.15872 12.6817 6.3869 12.3493 6.55153C11.7703 6.83833 11.2127 7.1613 10.6793 7.51742C10.3719 7.7227 10.0978 7.74185 9.93119 7.69613L7.17371 6.93953C5.56561 6.4983 3.69519 6.99072 2.62554 8.51287C1.95371 9.46892 1.36325 10.4868 0.864429 11.5566C0.0770091 13.2452 0.586569 15.1136 1.77321 16.2861L3.81041 18.2991C3.93326 18.4205 4.05361 18.6669 4.03019 19.035C4.00989 19.3543 3.99959 19.6761 3.99959 20C3.99959 20.3239 4.00989 20.6457 4.03019 20.965C4.05361 21.3331 3.93326 21.5795 3.81041 21.7009L1.77321 23.7139C0.586567 24.8864 0.0770091 26.7548 0.864429 28.4435C1.36325 29.5133 1.95371 30.531 2.62554 31.487C3.69519 33.0093 5.56561 33.5018 7.17371 33.0605L9.93119 32.304C10.0978 32.2583 10.3719 32.2772 10.6793 32.4825C11.2127 32.8387 11.7703 33.1618 12.3493 33.4485C12.6817 33.613 12.8353 33.8413 12.8789 34.0083L13.6017 36.7715C14.0243 38.3875 15.3898 39.7627 17.2467 39.9242C17.8247 39.9745 18.4094 40 18.9995 40C19.5897 40 20.1743 39.9745 20.7523 39.9242C22.6092 39.7627 23.9747 38.3875 24.3973 36.7715L25.12 34.0083C25.1638 33.8413 25.3173 33.6133 25.6498 33.4485C26.2288 33.1618 26.7865 32.8387 27.3198 32.4825C27.6273 32.2772 27.9013 32.2583 28.068 32.304L30.8253 33.0605C32.4335 33.5018 34.3038 33.0093 35.3735 31.4873C36.0453 30.531 36.6358 29.5133 37.1345 28.4435C37.922 26.7548 37.4125 24.8864 36.2258 23.7139L34.1888 21.701C34.0658 21.5797 33.9455 21.3332 33.969 20.9651C33.9893 20.6458 33.9995 20.324 33.9995 20C33.9995 19.676 33.9893 19.3542 33.969 19.0348C33.9455 18.6668 34.0658 18.4203 34.1888 18.299L36.2258 16.2861C37.4125 15.1136 37.922 13.2452 37.1345 11.5565C36.6358 10.4868 36.0453 9.4689 35.3735 8.51287C34.3038 6.9907 32.4335 6.4983 30.8253 6.93953L28.068 7.69607C27.9013 7.7418 27.6273 7.72267 27.3198 7.5174C26.7865 7.16125 26.2288 6.83825 25.6498 6.55142C25.3173 6.38683 25.1638 6.15865 25.12 5.99168L24.3973 3.22845C23.9747 1.6126 22.6092 0.237282 20.7523 0.0758565C20.1743 0.0256117 19.5897 0 18.9995 0ZM22.7495 20C22.7495 22.0711 21.0706 23.75 18.9995 23.75C16.9284 23.75 15.2495 22.0711 15.2495 20C15.2495 17.9289 16.9284 16.25 18.9995 16.25C21.0706 16.25 22.7495 17.9289 22.7495 20ZM26.4995 20C26.4995 24.1421 23.1416 27.5 18.9995 27.5C14.8574 27.5 11.4995 24.1421 11.4995 20C11.4995 15.8579 14.8574 12.5 18.9995 12.5C23.1416 12.5 26.4995 15.8579 26.4995 20Z" fill="#01C2FF"/>
</svg>
