<svg width="21" height="20" viewBox="0 0 21 20" fill="none" xmlns="http://www.w3.org/2000/svg">
<path d="M14.3571 10C14.3571 12.1302 12.6302 13.8571 10.5 13.8571C8.36976 13.8571 6.64286 12.1302 6.64286 10C6.64286 7.86976 8.36976 6.14286 10.5 6.14286C12.6302 6.14286 14.3571 7.86976 14.3571 10ZM14.3571 10V11.2857C14.3571 12.7059 15.5084 13.8571 16.9286 13.8571C17.8408 13.8571 18.6422 13.3821 19.0986 12.6658C19.3528 12.2671 19.5 11.7936 19.5 11.2857V10C19.5 7.17273 18.1963 4.64996 16.1573 3M10.5 1C5.52944 1 1.5 5.02944 1.5 10C1.5 14.9706 5.52944 19 10.5 19C12.4122 19 14.1851 18.4037 15.6429 17.3868" stroke="#01C2FF" stroke-width="1.5" stroke-linecap="round" stroke-linejoin="round"/>
</svg>
