<svg width="29" height="26" viewBox="0 0 29 26" fill="none" xmlns="http://www.w3.org/2000/svg">
<path d="M0 2.88889C0 1.2934 1.29837 0 2.9 0H26.1C27.7016 0 29 1.2934 29 2.88889V18.7778C29 20.3733 27.7016 21.6667 26.1 21.6667H19.4506L15.5253 25.5769C14.959 26.141 14.041 26.141 13.4747 25.5769L9.54939 21.6667H2.9C1.29837 21.6667 0 20.3733 0 18.7778V2.88889ZM26.1 2.88889H2.9V18.7778H10.15C10.5346 18.7778 10.9034 18.93 11.1753 19.2008L14.5 22.5128L17.8247 19.2008C18.0966 18.93 18.4654 18.7778 18.85 18.7778H26.1V2.88889ZM5.8 7.94444C5.8 7.1467 6.44919 6.5 7.25 6.5H21.75C22.5508 6.5 23.2 7.1467 23.2 7.94444C23.2 8.74219 22.5508 9.38889 21.75 9.38889H7.25C6.44919 9.38889 5.8 8.74219 5.8 7.94444ZM5.8 13.7222C5.8 12.9245 6.44919 12.2778 7.25 12.2778H15.95C16.7508 12.2778 17.4 12.9245 17.4 13.7222C17.4 14.52 16.7508 15.1667 15.95 15.1667H7.25C6.44919 15.1667 5.8 14.52 5.8 13.7222Z" fill="#01C2FF"/>
</svg>
