<svg width="360" height="194" viewBox="0 0 360 194" fill="none" xmlns="http://www.w3.org/2000/svg"><path fill-rule="evenodd" clip-rule="evenodd" d="M197.701 192.164h2.103l2.235-18.019 8.577 18.993 8.577-18.993 2.236 18.019h2.102l-3.17-25.324-9.745 21.706-9.744-21.706-3.171 25.324zm46.185 0H256.4v-1.948h-10.246v-10.714h9.878v-1.948h-9.878v-7.792h10.245v-1.948h-12.513v24.35zm33.338 0h5.806c4.094 0 7.114-1.038 9.06-3.114 1.833-1.85 3.064-4.252 3.521-6.87.044-.371.083-.736.117-1.095.034-.36.05-.725.05-1.096 0-.442-.022-.883-.067-1.322a14.007 14.007 0 0 0-.201-1.322c-.467-2.388-1.674-4.574-3.621-6.557-1.947-1.983-4.9-2.974-8.859-2.974h-5.808v24.35h.002zm2.269-1.948v-20.454h3.304c3.315 0 5.906.956 7.775 2.87 1.869 1.913 2.803 4.366 2.801 7.357a11.457 11.457 0 0 1-2.369 7.096c-1.58 2.087-4.317 3.13-8.21 3.131h-3.303.002zm37.109 1.948h2.269v-24.35h-2.269v24.35zm21.591 0h2.335l3.237-7.932h9.778l3.237 7.932h2.335l-10.445-25.046-10.477 25.046zm6.374-9.879 4.104-9.984 4.072 9.984h-8.176z" fill="#000"/><path fill-rule="evenodd" clip-rule="evenodd" d="m9.121 193.138 9.121-25.175H15.77L9.12 187.086l-6.649-19.123H0l9.121 25.175zm28.466-.969h2.272v-24.206h-2.272v24.206zm21.616 0h2.339l3.24-7.884h9.79l3.24 7.884h2.339l-10.458-24.898-10.49 24.898zm6.382-9.82 4.11-9.925 4.075 9.925h-8.186zm37.586 9.82h2.272v-22.27h6.248v-1.936H96.923v1.936h6.248v22.27zm27.864 0h12.529v-1.936h-10.258v-10.651h9.889v-1.936h-9.889v-7.747h10.257v-1.936h-12.528v24.206zm33.377 0h2.273v-11.757l10.458 11.757h3.04l-11.328-12.483 11.093-11.723h-2.806l-10.457 11.239v-11.239h-2.273v24.206z" fill="#2454C0"/><mask id="a" style="mask-type:alpha" maskUnits="userSpaceOnUse" x="0" y="0" width="166" height="138"><path fill-rule="evenodd" clip-rule="evenodd" d="M51.183.053H0L59.908 137.18h49.756L165.978 0h-33.226L91.703 98.83 51.183.054z" fill="#000"/></mask><g mask="url(#a)"><path fill="url(#b)" d="M-878.174-6.467h1027.34V143.56h-1027.34z"/></g><mask id="c" style="mask-type:alpha" maskUnits="userSpaceOnUse" x="59" y="0" width="166" height="138"><path fill-rule="evenodd" clip-rule="evenodd" d="M109.819 137.093h-49.94L118.957.011h46.766l58.886 136.547H189.89l-39.577-98.361-40.494 98.896z" fill="#1B3E8B"/></mask><g mask="url(#c)"><path fill="url(#d)" d="M-878.174-6.467h1027.34V143.56h-1027.34z"/></g><mask id="e" style="mask-type:alpha" maskUnits="userSpaceOnUse" x="119" y="0" width="240" height="137"><path fill-rule="evenodd" clip-rule="evenodd" d="m119.045 0 46.687.053 36.092 81.074L236.919.011h10.379l.005-.011h16.876l-.005.011h35.647l58.888 136.547h-50.857l-39.577-98.361-39.959 98.361h-19.828v.001h-33.752L119.045 0z" fill="#2454C0"/></mask><g mask="url(#e)"><path fill="url(#f)" d="M-668.223-6.467h1027.34V143.56h-1027.34z"/></g><defs><linearGradient id="b" x1="-878.174" y1="-6.467" x2="149.164" y2="-6.467" gradientUnits="userSpaceOnUse"><stop/><stop offset=".226"/><stop offset=".563" stop-color="#1B3E8B"/><stop offset=".872"/><stop offset="1"/></linearGradient><linearGradient id="d" x1="-878.174" y1="39.231" x2="149.164" y2="39.231" gradientUnits="userSpaceOnUse"><stop stop-color="#1B3E8B"/><stop offset=".25" stop-color="#1B3E8B"/><stop offset=".464"/><stop offset=".755" stop-color="#1B3E8B"/><stop offset="1" stop-color="#1B3E8B"/></linearGradient><linearGradient id="f" x1="-668.223" y1="39.231" x2="359.115" y2="39.231" gradientUnits="userSpaceOnUse"><stop stop-color="#2454C0"/><stop offset=".25" stop-color="#2454C0"/><stop offset=".464"/><stop offset=".755" stop-color="#2454C0"/><stop offset="1" stop-color="#2454C0"/></linearGradient></defs></svg>