<svg width="132" height="72" viewBox="0 0 132 72" fill="none" xmlns="http://www.w3.org/2000/svg">
<path fill-rule="evenodd" clip-rule="evenodd" d="M72.3544 70.8279H73.124L73.9422 64.2334L77.081 71.1845L80.2199 64.2334L81.0382 70.8279H81.8076L80.6474 61.5601L77.0812 69.504L73.5149 61.5601L72.3544 70.8279ZM89.2573 70.8279H93.8372V70.1151H90.0871V66.1941H93.7023V65.4812H90.0871V62.6293H93.8367V61.9165H89.2573V70.8279ZM101.458 70.8279H103.583C105.081 70.8279 106.187 70.4481 106.899 69.6885C107.57 69.0114 108.02 68.1322 108.188 67.1743C108.204 67.0385 108.218 66.9048 108.23 66.7733C108.243 66.6418 108.249 66.5081 108.249 66.3723C108.249 66.2106 108.24 66.0491 108.224 65.8884C108.207 65.7259 108.183 65.5645 108.15 65.4046C107.979 64.5306 107.538 63.7308 106.825 63.005C106.113 62.2792 105.032 61.9164 103.583 61.9165H101.458L101.458 70.8279ZM102.289 70.1151V62.6293H103.498C104.711 62.6293 105.659 62.9795 106.343 63.6797C107.027 64.38 107.369 65.2775 107.369 66.3723C107.376 67.3166 107.07 68.2344 106.501 68.9694C105.923 69.7331 104.922 70.115 103.497 70.1151H102.289ZM115.87 70.8279H116.7V61.9165H115.87V70.8279ZM123.771 70.8279H124.626L125.811 67.9253H129.389L130.574 70.8279H131.429L127.606 61.6618L123.771 70.8279ZM126.104 67.2125L127.607 63.5587L129.097 67.2125H126.104Z" fill="black"/>
<path fill-rule="evenodd" clip-rule="evenodd" d="M3.33802 71.1846L6.67609 61.971H5.77123L3.33802 68.9698L0.904671 61.971H-0.000183105L3.33802 71.1846ZM13.7559 70.8301H14.5875V61.971H13.7557V70.8301H13.7559ZM21.667 70.8301H22.5228L23.7088 67.9445H27.2915L28.4776 70.8301H29.3333L25.5061 61.7179L21.667 70.8301ZM24.0024 67.2359L25.5064 63.6036L26.9982 67.2359H24.0023H24.0024ZM37.7582 70.8301H38.5897V62.6797H40.8766V61.971H35.4715V62.6797H37.7583V70.8301H37.7582ZM47.9559 70.8301H52.5413V70.1214H48.787V66.2235H52.4064V65.5148H48.787V62.6797H52.541V61.971H47.9558V70.8301H47.9559ZM60.1712 70.8301H61.0032V66.5272L64.8305 70.8301H65.9432L61.7974 66.2614L65.8572 61.971H64.8302L61.0032 66.0842V61.971H60.1711V70.8301H60.1712Z" fill="#01C2FF"/>
<mask id="mask0_1559_6124" style="mask-type:alpha" maskUnits="userSpaceOnUse" x="0" y="0" width="61" height="51">
<path fill-rule="evenodd" clip-rule="evenodd" d="M18.732 0.519564H0L21.925 50.7049H40.1347L60.7444 0.5H48.5847L33.5615 36.6701L18.732 0.519564Z" fill="black"/>
</mask>
<g mask="url(#mask0_1559_6124)">
<rect x="-321.393" y="-1.8667" width="375.984" height="54.9067" fill="url(#paint0_linear_1559_6124)"/>
</g>
<mask id="mask1_1559_6124" style="mask-type:alpha" maskUnits="userSpaceOnUse" x="21" y="0" width="62" height="51">
<path fill-rule="evenodd" clip-rule="evenodd" d="M40.1915 50.6734H21.9145L43.5357 0.50415H60.6511L82.2022 50.4776H69.4957L55.0114 14.4792L40.1915 50.6734Z" fill="#1B3E8B"/>
</mask>
<g mask="url(#mask1_1559_6124)">
<rect x="-321.393" y="-1.8667" width="375.984" height="54.9067" fill="url(#paint1_linear_1559_6124)"/>
</g>
<mask id="mask2_1559_6124" style="mask-type:alpha" maskUnits="userSpaceOnUse" x="43" y="0" width="89" height="51">
<path fill-rule="evenodd" clip-rule="evenodd" d="M43.5677 0.5L60.6544 0.519564L73.8631 30.1909L86.7074 0.504105H90.5059L90.5075 0.5H96.6837L96.6821 0.504105H109.728L131.28 50.4775H112.667L98.1829 14.4791L83.5589 50.4775H76.3021L76.302 50.4777H63.9494L43.5677 0.5Z" fill="#2454C0"/>
</mask>
<g mask="url(#mask2_1559_6124)">
<rect x="-244.556" y="-1.8667" width="375.984" height="54.9067" fill="url(#paint2_linear_1559_6124)"/>
</g>
<defs>
<linearGradient id="paint0_linear_1559_6124" x1="-321.393" y1="-1.8667" x2="54.591" y2="-1.8667" gradientUnits="userSpaceOnUse">
<stop stop-color="#003566"/>
<stop offset="0.226479" stop-color="#003566"/>
<stop offset="0.5625" stop-color="#2C84D5"/>
<stop offset="0.872405" stop-color="#003566"/>
<stop offset="1" stop-color="#003566"/>
</linearGradient>
<linearGradient id="paint1_linear_1559_6124" x1="-321.393" y1="14.8578" x2="54.591" y2="14.8577" gradientUnits="userSpaceOnUse">
<stop stop-color="#0087D2"/>
<stop offset="0.25" stop-color="#0087D2"/>
<stop offset="0.463542" stop-color="#79CFFF"/>
<stop offset="0.755208" stop-color="#0087D2"/>
<stop offset="1" stop-color="#0087D2"/>
</linearGradient>
<linearGradient id="paint2_linear_1559_6124" x1="-244.556" y1="14.8578" x2="131.429" y2="14.8577" gradientUnits="userSpaceOnUse">
<stop stop-color="#01C2FF"/>
<stop offset="0.25" stop-color="#01C2FF"/>
<stop offset="0.463542" stop-color="#7ADEFE"/>
<stop offset="0.755208" stop-color="#01C2FF"/>
<stop offset="1" stop-color="#01C2FF"/>
</linearGradient>
</defs>
</svg>
