<svg width="32" height="32" viewBox="0 0 32 32" fill="none" xmlns="http://www.w3.org/2000/svg">
<path d="M30.171 16C30.171 23.8266 23.8262 30.1714 15.9996 30.1714C8.17289 30.1714 1.82812 23.8266 1.82812 16C1.82812 8.17332 8.17289 1.82855 15.9996 1.82855C23.8262 1.82855 30.171 8.17332 30.171 16Z" stroke="#01C2FF" stroke-width="1.11429"/>
<path d="M19.7446 19.0483C19.7446 20.0591 19.4028 20.8257 18.7192 21.3481C18.0405 21.8706 17.1177 22.1318 15.9507 22.1318C15.5991 22.1318 15.2573 22.1074 14.9253 22.0586C14.5981 22.0098 14.3247 21.9512 14.105 21.8828C13.8853 21.8096 13.6924 21.7388 13.5264 21.6704C13.3604 21.5972 13.2383 21.5361 13.1602 21.4873L13.043 21.4141L13.314 20.5278C13.3823 20.5669 13.4824 20.6157 13.6143 20.6743C13.7461 20.7329 14.0244 20.811 14.4492 20.9087C14.874 21.0063 15.311 21.0552 15.7603 21.0552C16.561 21.0552 17.1445 20.894 17.5107 20.5718C17.8818 20.2446 18.0674 19.7417 18.0674 19.063C18.0674 18.3989 17.9062 17.9082 17.584 17.5908C17.2666 17.2686 16.7734 17.1074 16.1045 17.1074H15.3208L15.1743 16.9609V16.1187L17.6499 12.9546H13.4165V11.7974H19.2979V12.8228L16.5952 16.104V16.2065C18.6948 16.4263 19.7446 17.3735 19.7446 19.0483Z" fill="#01C2FF"/>
</svg>
