<svg width="32" height="32" viewBox="0 0 32 32" fill="none" xmlns="http://www.w3.org/2000/svg">
<path d="M30.171 16C30.171 23.8266 23.8262 30.1714 15.9996 30.1714C8.17289 30.1714 1.82812 23.8266 1.82812 16C1.82812 8.17332 8.17289 1.82855 15.9996 1.82855C23.8262 1.82855 30.171 8.17332 30.171 16Z" stroke="#01C2FF" stroke-width="1.11429"/>
<path d="M19.6274 14.2144C19.6274 14.5903 19.564 14.9614 19.437 15.3276C19.3101 15.689 19.1465 16.021 18.9463 16.3237C18.751 16.6216 18.4849 16.9609 18.1479 17.3418C17.8159 17.7178 17.4937 18.0596 17.1812 18.3672C16.8687 18.6699 16.478 19.0581 16.0093 19.5317C15.5405 20.0054 15.1255 20.4424 14.7642 20.8428H19.7007V22H13.1895V20.7988C13.6484 20.2324 14.1538 19.6562 14.7056 19.0703C15.2573 18.4795 15.709 18.0059 16.0605 17.6494C16.4121 17.2881 16.749 16.917 17.0713 16.5361C17.3936 16.1504 17.6304 15.7817 17.7817 15.4302C17.9331 15.0737 18.0088 14.7026 18.0088 14.3169C18.0088 13.814 17.8599 13.438 17.562 13.189C17.2642 12.9351 16.7832 12.8081 16.1191 12.8081C15.8311 12.8081 15.5479 12.8325 15.2695 12.8813C14.9961 12.9302 14.7666 12.9888 14.5811 13.0571C14.3955 13.1255 14.2295 13.1938 14.083 13.2622C13.9365 13.3306 13.8291 13.3892 13.7607 13.438L13.6582 13.5112L13.314 12.5518C13.3384 12.5273 13.375 12.4956 13.4238 12.4565C13.4727 12.4175 13.5874 12.3467 13.7681 12.2441C13.9536 12.1416 14.1538 12.0513 14.3687 11.9731C14.5835 11.895 14.8716 11.8242 15.2329 11.7607C15.5942 11.6973 15.9751 11.6655 16.3755 11.6655C17.4497 11.6655 18.2603 11.8853 18.8071 12.3247C19.354 12.7642 19.6274 13.394 19.6274 14.2144Z" fill="#01C2FF"/>
</svg>
