<svg width="32" height="32" viewBox="0 0 32 32" fill="none" xmlns="http://www.w3.org/2000/svg">
<path d="M30.171 16C30.171 23.8266 23.8262 30.1714 15.9996 30.1714C8.17289 30.1714 1.82812 23.8266 1.82812 16C1.82812 8.17332 8.17289 1.82855 15.9996 1.82855C23.8262 1.82855 30.171 8.17332 30.171 16Z" stroke="#01C2FF" stroke-width="1.11429"/>
<path d="M12.0981 21.1138C12.0981 20.8159 12.1885 20.5742 12.3691 20.3887C12.5547 20.2031 12.7939 20.1104 13.0869 20.1104C13.375 20.1104 13.6118 20.2031 13.7974 20.3887C13.9878 20.5742 14.083 20.8159 14.083 21.1138C14.083 21.4067 13.9878 21.646 13.7974 21.8315C13.6118 22.0122 13.375 22.1025 13.0869 22.1025C12.7939 22.1025 12.5547 22.0122 12.3691 21.8315C12.1885 21.646 12.0981 21.4067 12.0981 21.1138ZM15.5112 21.1138C15.5112 20.8159 15.6016 20.5742 15.7822 20.3887C15.9678 20.2031 16.207 20.1104 16.5 20.1104C16.7881 20.1104 17.0249 20.2031 17.2104 20.3887C17.4009 20.5742 17.4961 20.8159 17.4961 21.1138C17.4961 21.4067 17.4009 21.646 17.2104 21.8315C17.0249 22.0122 16.7881 22.1025 16.5 22.1025C16.207 22.1025 15.9678 22.0122 15.7822 21.8315C15.6016 21.646 15.5112 21.4067 15.5112 21.1138ZM18.9243 21.1138C18.9243 20.8159 19.0146 20.5742 19.1953 20.3887C19.3809 20.2031 19.6201 20.1104 19.9131 20.1104C20.2012 20.1104 20.438 20.2031 20.6235 20.3887C20.814 20.5742 20.9092 20.8159 20.9092 21.1138C20.9092 21.4067 20.814 21.646 20.6235 21.8315C20.438 22.0122 20.2012 22.1025 19.9131 22.1025C19.6201 22.1025 19.3809 22.0122 19.1953 21.8315C19.0146 21.646 18.9243 21.4067 18.9243 21.1138Z" fill="#01C2FF"/>
</svg>
