<svg width="32" height="32" viewBox="0 0 32 32" fill="none" xmlns="http://www.w3.org/2000/svg">
<path d="M30.171 16C30.171 23.8266 23.8262 30.1714 15.9996 30.1714C8.17289 30.1714 1.82812 23.8266 1.82812 16C1.82812 8.17332 8.17289 1.82855 15.9996 1.82855C23.8262 1.82855 30.171 8.17332 30.171 16Z" stroke="#01C2FF" stroke-width="1.11429"/>
<path d="M19.686 18.9678C19.686 20.0176 19.3564 20.8086 18.6973 21.3408C18.043 21.8682 17.1274 22.1318 15.9507 22.1318C15.5942 22.1318 15.25 22.1074 14.918 22.0586C14.5859 22.0098 14.3101 21.9512 14.0903 21.8828C13.8706 21.8096 13.6777 21.7388 13.5117 21.6704C13.3457 21.5972 13.2236 21.5361 13.1455 21.4873L13.0356 21.4141L13.3726 20.4399C13.397 20.4546 13.4312 20.4766 13.4751 20.5059C13.519 20.5303 13.6167 20.5767 13.7681 20.645C13.9194 20.7085 14.0781 20.7646 14.2441 20.8135C14.415 20.8623 14.6299 20.9087 14.8887 20.9526C15.1523 20.9917 15.4209 21.0112 15.6943 21.0112C17.2324 21.0112 18.0015 20.3447 18.0015 19.0117C18.0015 18.2256 17.7427 17.6665 17.2251 17.3345C16.7075 17.0024 15.8481 16.8364 14.647 16.8364H13.7314L13.5776 16.6899L14.1489 11.7974H19.0562V12.9546H15.2622L14.896 15.8037C15.3696 15.8135 15.7944 15.8403 16.1704 15.8843C16.5513 15.9233 16.9297 15.9868 17.3057 16.0747C17.6865 16.1626 18.0137 16.2847 18.2871 16.4409C18.5654 16.5923 18.812 16.7803 19.0269 17.0049C19.2466 17.2295 19.4102 17.5078 19.5176 17.8398C19.6299 18.1719 19.686 18.5479 19.686 18.9678Z" fill="#01C2FF"/>
</svg>
