<svg width="32" height="32" viewBox="0 0 32 32" fill="none" xmlns="http://www.w3.org/2000/svg">
<path d="M30.171 16C30.171 23.8266 23.8262 30.1714 15.9996 30.1714C8.17289 30.1714 1.82812 23.8266 1.82812 16C1.82812 8.17332 8.17289 1.82855 15.9996 1.82855C23.8262 1.82855 30.171 8.17332 30.171 16Z" stroke="#01C2FF" stroke-width="1.11429"/>
<path d="M15.3867 19.0483C15.3867 20.0591 15.0449 20.8257 14.3613 21.3481C13.6826 21.8706 12.7598 22.1318 11.5928 22.1318C11.2412 22.1318 10.8994 22.1074 10.5674 22.0586C10.2402 22.0098 9.9668 21.9512 9.74707 21.8828C9.52734 21.8096 9.33447 21.7388 9.16846 21.6704C9.00244 21.5972 8.88037 21.5361 8.80225 21.4873L8.68506 21.4141L8.95605 20.5278C9.02441 20.5669 9.12451 20.6157 9.25635 20.6743C9.38818 20.7329 9.6665 20.811 10.0913 20.9087C10.5161 21.0063 10.9531 21.0552 11.4023 21.0552C12.2031 21.0552 12.7866 20.894 13.1528 20.5718C13.5239 20.2446 13.7095 19.7417 13.7095 19.063C13.7095 18.3989 13.5483 17.9082 13.2261 17.5908C12.9087 17.2686 12.4155 17.1074 11.7466 17.1074H10.9629L10.8164 16.9609V16.1187L13.292 12.9546H9.05859V11.7974H14.9399V12.8228L12.2373 16.104V16.2065C14.3369 16.4263 15.3867 17.3735 15.3867 19.0483ZM16.9468 16.8877C16.9468 15.2617 17.2788 13.9849 17.9429 13.0571C18.6118 12.1294 19.4956 11.6655 20.5942 11.6655C21.688 11.6655 22.5669 12.1318 23.231 13.0645C23.895 13.9922 24.2271 15.2715 24.2271 16.9023C24.2271 18.5332 23.895 19.8125 23.231 20.7402C22.5669 21.668 21.688 22.1318 20.5942 22.1318C19.4956 22.1318 18.6118 21.668 17.9429 20.7402C17.2788 19.8076 16.9468 18.5234 16.9468 16.8877ZM18.6313 16.9023C18.6313 18.2695 18.7998 19.2925 19.1367 19.9712C19.4736 20.645 19.9595 20.9819 20.5942 20.9819C21.9028 20.9819 22.5571 19.627 22.5571 16.917C22.5571 14.1875 21.9077 12.8228 20.6089 12.8228C19.2905 12.8228 18.6313 14.1826 18.6313 16.9023Z" fill="#01C2FF"/>
</svg>
