<svg width="22" height="20" viewBox="0 0 22 20" fill="none" xmlns="http://www.w3.org/2000/svg">
<path d="M16.75 19C16.75 19.4142 17.0858 19.75 17.5 19.75C17.9142 19.75 18.25 19.4142 18.25 19H16.75ZM0.75 19C0.75 19.4142 1.08579 19.75 1.5 19.75C1.91421 19.75 2.25 19.4142 2.25 19H0.75ZM19.25 11C19.25 10.5858 18.9142 10.25 18.5 10.25C18.0858 10.25 17.75 10.5858 17.75 11H19.25ZM17.75 11.01C17.75 11.4242 18.0858 11.76 18.5 11.76C18.9142 11.76 19.25 11.4242 19.25 11.01H17.75ZM17.75 9C17.75 9.41421 18.0858 9.75 18.5 9.75C18.9142 9.75 19.25 9.41421 19.25 9H17.75ZM15.7727 5.37538C15.6716 5.77707 15.9153 6.18466 16.3169 6.28576C16.7186 6.38686 17.1262 6.14319 17.2273 5.7415L15.7727 5.37538ZM5.5 13.75H13.5V12.25H5.5V13.75ZM16.75 17V19H18.25V17H16.75ZM2.25 19V17H0.75V19H2.25ZM13.5 13.75C15.2949 13.75 16.75 15.2051 16.75 17H18.25C18.25 14.3766 16.1234 12.25 13.5 12.25V13.75ZM5.5 12.25C2.87665 12.25 0.75 14.3766 0.75 17H2.25C2.25 15.2051 3.70507 13.75 5.5 13.75V12.25ZM12.75 5C12.75 6.79493 11.2949 8.25 9.5 8.25V9.75C12.1234 9.75 14.25 7.62335 14.25 5H12.75ZM9.5 8.25C7.70507 8.25 6.25 6.79493 6.25 5H4.75C4.75 7.62335 6.87665 9.75 9.5 9.75V8.25ZM6.25 5C6.25 3.20507 7.70507 1.75 9.5 1.75V0.25C6.87665 0.25 4.75 2.37665 4.75 5H6.25ZM9.5 1.75C11.2949 1.75 12.75 3.20507 12.75 5H14.25C14.25 2.37665 12.1234 0.25 9.5 0.25V1.75ZM17.75 11V11.01H19.25V11H17.75ZM19.75 6.07792C19.75 6.4006 19.5911 6.56799 19.0576 6.9577C18.6132 7.28233 17.75 7.85086 17.75 9H19.25C19.25 8.72057 19.3868 8.57481 19.9424 8.16893C20.4089 7.82811 21.25 7.24875 21.25 6.07792H19.75ZM18.5 4.75C19.177 4.75 19.75 5.31284 19.75 6.07792H21.25C21.25 4.54779 20.0675 3.25 18.5 3.25V4.75ZM17.2273 5.7415C17.3701 5.17411 17.9015 4.75 18.5 4.75V3.25C17.2049 3.25 16.081 4.15033 15.7727 5.37538L17.2273 5.7415Z" fill="#0187D3"/>
</svg>
