<svg width="34" height="35" viewBox="0 0 34 35" fill="none" xmlns="http://www.w3.org/2000/svg">
<path d="M17 34.2361C14.4801 34.2432 11.9921 33.673 9.72669 32.5694C8.8976 32.1661 8.10324 31.6951 7.35169 31.161L7.12336 30.9944C5.05639 29.4687 3.36648 27.4898 2.18336 25.2094C0.959584 22.8492 0.32487 20.228 0.333273 17.5694C0.333273 8.36463 7.79528 0.90271 17 0.90271C26.2048 0.90271 33.6668 8.36463 33.6668 17.5694C33.6751 20.2267 33.041 22.8467 31.8184 25.206C30.6369 27.4851 28.9493 29.4634 26.885 30.9894C26.1063 31.5594 25.2799 32.0612 24.415 32.4894L24.2817 32.556C22.0149 33.6656 19.5238 34.2403 17 34.2361ZM17 25.9027C14.5025 25.8978 12.2128 27.2928 11.0717 29.5144C14.8073 31.3647 19.1927 31.3647 22.9284 29.5144V29.506C21.7858 27.2868 19.4961 25.8951 17 25.9027ZM17 22.5694C20.6102 22.5741 23.939 24.5196 25.715 27.6627L25.74 27.641L25.7634 27.621L25.735 27.646L25.7184 27.6594C29.9334 24.0179 31.4405 18.1399 29.4978 12.9196C27.555 7.69917 22.5718 4.23657 17.0017 4.23657C11.4315 4.23657 6.44835 7.69917 4.50561 12.9196C2.56287 18.1399 4.07003 24.0179 8.28502 27.6594C10.0621 24.5178 13.3906 22.5738 17 22.5694ZM17 20.9027C13.3181 20.9027 10.3334 17.9179 10.3334 14.236C10.3334 10.5541 13.3181 7.56938 17 7.56938C20.6819 7.56938 23.6667 10.5541 23.6667 14.236C23.6667 16.0042 22.9643 17.6998 21.7141 18.9501C20.4638 20.2003 18.7681 20.9027 17 20.9027ZM17 10.9027C15.1591 10.9027 13.6667 12.3951 13.6667 14.236C13.6667 16.077 15.1591 17.5694 17 17.5694C18.841 17.5694 20.3334 16.077 20.3334 14.236C20.3334 12.3951 18.841 10.9027 17 10.9027Z" fill="#01C2FF"/>
</svg>
