<svg width="36" height="40" viewBox="0 0 36 40" fill="none" xmlns="http://www.w3.org/2000/svg">
<path fill-rule="evenodd" clip-rule="evenodd" d="M19.3334 0.332657C18.4661 0.055131 17.5339 0.0551295 16.6666 0.332655L3.5416 4.53265C1.72957 5.1125 0.5 6.79695 0.5 8.6995V17.4996C0.5 21.4147 1.29808 25.4558 3.758 29.205C6.21578 32.9513 10.2209 36.2365 16.3377 38.8418C17.3977 39.2933 18.6023 39.2933 19.6623 38.8418C25.779 36.2365 29.7843 32.9513 32.242 29.205C34.702 25.4558 35.5 21.4147 35.5 17.4996V8.6995C35.5 6.79695 34.2705 5.1125 32.4585 4.53265L19.3334 0.332657ZM17.8095 3.90425C17.9334 3.8646 18.0666 3.8646 18.1905 3.90425L31.3155 8.10425C31.5742 8.18707 31.75 8.42772 31.75 8.6995V17.4996C31.75 20.8954 31.0633 24.1654 29.1065 27.148C27.1478 30.1337 23.804 33.0018 18.1928 35.3918C18.0717 35.4432 17.9284 35.4432 17.8072 35.3918C12.196 33.0018 8.85235 30.1337 6.89342 27.148C4.93663 24.1654 4.25 20.8954 4.25 17.4996V8.6995C4.25 8.42772 4.42565 8.18707 4.68453 8.10425L17.8095 3.90425ZM26.2008 15.7005C26.933 14.9683 26.933 13.7811 26.2008 13.0489C25.4685 12.3166 24.2815 12.3166 23.5492 13.0489L16.125 20.4731L13.7008 18.0489C12.9686 17.3166 11.7814 17.3166 11.0492 18.0489C10.3169 18.7811 10.3169 19.9683 11.0492 20.7005L14.7992 24.4505C15.5314 25.1827 16.7186 25.1827 17.4508 24.4505L26.2008 15.7005Z" fill="#01C2FF"/>
</svg>
