<svg width="40" height="28" viewBox="0 0 40 28" fill="none" xmlns="http://www.w3.org/2000/svg">
<path fill-rule="evenodd" clip-rule="evenodd" d="M13.7498 3.74998C12.4237 3.74998 11.152 4.27675 10.2143 5.21443C9.27662 6.15213 8.74982 7.42388 8.74982 8.74998C8.74982 10.0761 9.27662 11.3478 10.2143 12.2855C11.152 13.2232 12.4237 13.75 13.7498 13.75C15.0759 13.75 16.3477 13.2232 17.2854 12.2855C18.223 11.3478 18.7498 10.0761 18.7498 8.74998C18.7498 7.42388 18.223 6.15213 17.2854 5.21443C16.3477 4.27675 15.0759 3.74998 13.7498 3.74998ZM4.99982 8.74998C4.99965 7.29965 5.35997 5.87203 6.0484 4.5955C6.73682 3.319 7.73175 2.23363 8.9437 1.437C10.1556 0.640379 11.5466 0.157504 12.9915 0.0318291C14.4363 -0.0938709 15.8898 0.141555 17.2211 0.716905C18.5524 1.29228 19.7198 2.18953 20.6183 3.328C21.5168 4.46645 22.1183 5.8104 22.3686 7.23895C22.6188 8.66753 22.5101 10.1359 22.0521 11.512C21.5941 12.8881 20.8012 14.1288 19.7448 15.1225C21.737 16.0889 23.4666 17.5217 24.787 19.2991C26.1076 21.0765 26.9798 23.1462 27.3298 25.3325C27.4078 25.8237 27.2873 26.326 26.9948 26.7285C26.7026 27.131 26.2623 27.4007 25.7711 27.4787C25.2798 27.5567 24.7776 27.4362 24.3751 27.1437C23.9726 26.8515 23.7027 26.4112 23.6248 25.92C23.2465 23.5735 22.0449 21.4382 20.2354 19.897C18.4259 18.3559 16.1267 17.5095 13.7498 17.5095C11.3729 17.5095 9.07375 18.3559 7.26422 19.897C5.4547 21.4382 4.25312 23.5735 3.87482 25.92C3.8361 26.1632 3.7498 26.3965 3.62092 26.6065C3.49202 26.8165 3.32305 26.999 3.12365 27.1435C2.92422 27.2882 2.69827 27.392 2.4587 27.4492C2.21912 27.5067 1.9706 27.5162 1.72732 27.4775C1.48405 27.4387 1.25079 27.3525 1.04086 27.2235C0.83093 27.0947 0.648442 26.9257 0.503815 26.7262C0.359187 26.527 0.255252 26.301 0.197947 26.0612C0.140642 25.8217 0.131086 25.5732 0.169826 25.33C0.520662 23.1445 1.39326 21.076 2.71365 19.2994C4.03405 17.5229 5.7633 16.091 7.75482 15.125C6.88365 14.3076 6.1896 13.32 5.71572 12.2234C5.24182 11.1268 4.99815 9.94458 4.99982 8.74998ZM27.4998 4.99998C27.0026 4.99998 26.5256 5.1975 26.1741 5.54915C25.8223 5.90078 25.6248 6.37768 25.6248 6.87498C25.6248 7.37225 25.8223 7.84915 26.1741 8.2008C26.5256 8.55243 27.0026 8.74998 27.4998 8.74998C28.3456 8.75003 29.1666 9.03605 29.8296 9.5616C30.4923 10.0872 30.9581 10.8213 31.1508 11.6449C31.3436 12.4685 31.2523 13.3332 30.8918 14.0983C30.5313 14.8635 29.9228 15.4844 29.1648 15.86C28.8523 16.0154 28.5893 16.2551 28.4056 16.5519C28.2218 16.8487 28.1246 17.1909 28.1248 17.54V18.42C28.1243 18.8411 28.2656 19.2502 28.5258 19.5813C28.7861 19.9124 29.1503 20.1462 29.5598 20.245C32.5598 20.9675 34.9648 23.245 35.8648 26.175C35.9361 26.4112 36.0536 26.6312 36.2101 26.8222C36.3668 27.013 36.5596 27.1712 36.7776 27.2875C36.9953 27.4035 37.2341 27.4755 37.4798 27.4992C37.7256 27.523 37.9736 27.4977 38.2098 27.4255C38.4458 27.353 38.6653 27.2347 38.8553 27.0772C39.0456 26.9197 39.2028 26.7262 39.3181 26.5077C39.4333 26.2895 39.5043 26.0505 39.5268 25.8045C39.5496 25.5587 39.5233 25.3107 39.4498 25.075C38.9493 23.4515 38.1238 21.9467 37.0236 20.6525C35.9233 19.3579 34.5713 18.3007 33.0498 17.545C34.0271 16.4698 34.6713 15.1339 34.9036 13.6996C35.1361 12.2653 34.9468 10.7944 34.3591 9.4656C33.7711 8.13683 32.8098 7.00743 31.5923 6.21465C30.3746 5.42188 28.9528 4.99988 27.4998 4.99998Z" fill="#01C2FF"/>
</svg>
