<svg width="38" height="44" viewBox="0 0 38 44" fill="none" xmlns="http://www.w3.org/2000/svg">
<path d="M30.7042 10.4333L33.7313 7.40623L36.6772 10.3521L33.6501 13.3791C36.6413 17.1232 38.0853 21.8706 37.6857 26.6461C37.286 31.4216 35.073 35.8629 31.5011 39.0577C27.9292 42.2526 23.2696 43.9585 18.4792 43.8252C13.6888 43.6918 9.13135 41.7293 5.74273 38.3407C2.35411 34.952 0.3916 30.3946 0.258245 25.6042C0.124889 20.8138 1.83081 16.1542 5.02566 12.5823C8.22051 9.0104 12.6618 6.79738 17.4373 6.39773C22.2128 5.99808 26.9601 7.44213 30.7042 10.4333ZM19.0001 39.6666C20.9152 39.6666 22.8116 39.2894 24.5809 38.5566C26.3502 37.8237 27.9579 36.7495 29.3121 35.3953C30.6662 34.0411 31.7404 32.4334 32.4733 30.6641C33.2062 28.8948 33.5834 26.9984 33.5834 25.0833C33.5834 23.1682 33.2062 21.2718 32.4733 19.5025C31.7404 17.7332 30.6662 16.1255 29.3121 14.7713C27.9579 13.4172 26.3502 12.343 24.5809 11.6101C22.8116 10.8772 20.9152 10.5 19.0001 10.5C15.1323 10.5 11.423 12.0364 8.68811 14.7713C5.9532 17.5062 4.41675 21.2156 4.41675 25.0833C4.41675 28.9511 5.9532 32.6604 8.68811 35.3953C11.423 38.1302 15.1323 39.6666 19.0001 39.6666ZM16.9167 14.6666H21.0834V27.1666H16.9167V14.6666ZM10.6667 0.083313H27.3334V4.24998H10.6667V0.083313Z" fill="#01C2FF"/>
</svg>
