<svg width="20" height="20" viewBox="0 0 20 20" fill="none" xmlns="http://www.w3.org/2000/svg">
<path d="M17.0265 18.9929C18.0723 19.0873 19.0037 18.2223 18.9995 17.1864V14.4767C19.0105 14.0337 18.858 13.6021 18.5709 13.264C17.7615 12.3106 14.9855 11.7008 13.8851 11.935C13.0274 12.1176 12.4272 12.9788 11.8405 13.5644C10.6173 12.8702 9.50758 12.005 8.54266 11M6.41026 8.14484C6.99696 7.55929 7.85994 6.96036 8.04287 6.10428C8.27719 5.00777 7.66819 2.24949 6.72138 1.43684C6.38835 1.151 5.96253 0.995773 5.52331 1.00009H2.80817C1.77364 1.00106 0.912936 1.92895 1.00713 2.96919C1.00087 10.9038 6.48257 17.3497 14 18.7226" stroke="#01C2FF" stroke-width="1.5" stroke-linecap="round" stroke-linejoin="round"/>
</svg>
