<svg width="40" height="40" viewBox="0 0 40 40" fill="none" xmlns="http://www.w3.org/2000/svg">
<path d="M21.875 12.5L21.875 1.875C21.875 0.839466 21.0355 0 20 0C18.9645 0 18.125 0.839466 18.125 1.875L18.125 12.5H12.7589C12.2021 12.5 11.9232 13.1732 12.3169 13.567L19.5581 20.8081C19.8021 21.0522 20.1979 21.0522 20.4419 20.8081L27.6831 13.567C28.0768 13.1732 27.7979 12.5 27.2411 12.5H21.875Z" fill="#01C2FF"/>
<path fill-rule="evenodd" clip-rule="evenodd" d="M3.75 6.875C3.75 6.52982 4.02982 6.25 4.375 6.25H11.875C12.9105 6.25 13.75 5.41053 13.75 4.375C13.75 3.33947 12.9105 2.5 11.875 2.5H4.375C1.95875 2.5 0 4.45876 0 6.875V25.625C0 28.0412 1.95875 30 4.375 30H13.6925C13.4448 32.6026 12.3921 34.681 10.4623 36.8921C9.97886 37.4461 9.8638 38.2315 10.1681 38.9009C10.4723 39.5702 11.1397 40 11.875 40H28.125C28.8603 40 29.5277 39.5702 29.8319 38.9009C30.1362 38.2315 30.0211 37.4461 29.5377 36.8921C27.6079 34.681 26.5552 32.6026 26.3074 30H35.625C38.0412 30 40 28.0412 40 25.625V6.875C40 4.45876 38.0412 2.5 35.625 2.5H28.125C27.0895 2.5 26.25 3.33947 26.25 4.375C26.25 5.41053 27.0895 6.25 28.125 6.25H35.625C35.9702 6.25 36.25 6.52982 36.25 6.875V25.625C36.25 25.9702 35.9702 26.25 35.625 26.25H4.375C4.02982 26.25 3.75 25.9702 3.75 25.625V6.875ZM22.5446 30H17.4554C17.2848 32.3442 16.6275 34.3683 15.5433 36.25H24.4567C23.3725 34.3683 22.7152 32.3442 22.5446 30Z" fill="#01C2FF"/>
</svg>
