<svg width="35" height="31" viewBox="0 0 35 31" fill="none" xmlns="http://www.w3.org/2000/svg">
<path d="M12.5 0.569336C7.89764 0.569336 4.16668 4.3003 4.16668 8.90267C4.16668 13.505 7.89764 17.236 12.5 17.236C17.1024 17.236 20.8333 13.505 20.8333 8.90267C20.8333 4.3003 17.1024 0.569336 12.5 0.569336ZM7.50001 8.90267C7.50001 6.14125 9.73859 3.90267 12.5 3.90267C15.2614 3.90267 17.5 6.14125 17.5 8.90267C17.5 11.6641 15.2614 13.9027 12.5 13.9027C9.73859 13.9027 7.50001 11.6641 7.50001 8.90267Z" fill="#01C2FF"/>
<path d="M25.6807 9.26647C25.2118 9.0274 24.693 8.90277 24.1667 8.90277V5.56944C25.2193 5.56944 26.257 5.81861 27.1948 6.29675C27.2981 6.34941 27.3999 6.40469 27.5 6.4625C28.309 6.92957 29.012 7.56215 29.5622 8.32026C30.1805 9.1722 30.5882 10.1585 30.7521 11.1983C30.9159 12.2381 30.8312 13.302 30.5049 14.3028C30.1786 15.3036 29.6199 16.2129 28.8745 16.9562C28.1292 17.6996 27.2185 18.2559 26.2168 18.5796C25.3255 18.8677 24.3847 18.9643 23.4559 18.8647C23.341 18.8523 23.2262 18.837 23.1117 18.8187C22.073 18.6522 21.0885 18.2423 20.2386 17.6225L20.2368 17.6212L22.2017 14.9286C22.6269 15.2389 23.1195 15.4439 23.6392 15.5272C24.1589 15.6105 24.6909 15.5696 25.1917 15.4077C25.6925 15.2459 26.1479 14.9677 26.5205 14.596C26.8932 14.2244 27.1725 13.7697 27.3357 13.2694C27.4989 12.769 27.5412 12.2371 27.4593 11.7172C27.3774 11.1973 27.1735 10.7041 26.8643 10.2782C26.5552 9.85223 26.1496 9.50553 25.6807 9.26647Z" fill="#01C2FF"/>
<path d="M30.8302 30.5693C30.8302 29.6943 30.6578 28.8278 30.323 28.0193C29.9881 27.2109 29.4973 26.4763 28.8785 25.8575C28.2597 25.2388 27.5251 24.7479 26.7167 24.4131C25.9082 24.0782 25.0417 23.9058 24.1667 23.9058V20.5693C25.3035 20.5693 26.4306 20.7632 27.5 21.1412C27.666 21.1999 27.8305 21.263 27.9935 21.3305C29.2068 21.8331 30.3092 22.5697 31.2377 23.4983C32.1663 24.4269 32.9029 25.5292 33.4055 26.7425C33.473 26.9055 33.5361 27.07 33.5948 27.236C33.9728 28.3054 34.1667 29.4325 34.1667 30.5693H30.8302Z" fill="#01C2FF"/>
<path d="M24.1667 30.5693H20.8333C20.8333 25.967 17.1024 22.236 12.5 22.236C7.89764 22.236 4.16668 25.967 4.16668 30.5693H0.833344C0.833344 24.126 6.05669 18.9027 12.5 18.9027C18.9433 18.9027 24.1667 24.126 24.1667 30.5693Z" fill="#01C2FF"/>
</svg>
