<svg width="45" height="45" viewBox="0 0 45 45" fill="none" xmlns="http://www.w3.org/2000/svg">
<g clip-path="url(#clip0_689_1962)">
<path d="M22.5 37.5C26.4782 37.5 30.2935 35.9196 33.1066 33.1066C35.9196 30.2935 37.5 26.4782 37.5 22.5C37.5 18.5217 35.9196 14.7064 33.1066 11.8934C30.2935 9.08032 26.4782 7.49997 22.5 7.49997C18.5217 7.49997 14.7064 9.08032 11.8934 11.8934C9.08032 14.7064 7.49997 18.5217 7.49997 22.5C7.49997 26.4782 9.08032 30.2935 11.8934 33.1066C14.7064 35.9196 18.5217 37.5 22.5 37.5ZM22.5 41.25C12.1443 41.25 3.74997 32.8556 3.74997 22.5C3.74997 12.1443 12.1443 3.74997 22.5 3.74997C32.8556 3.74997 41.25 12.1443 41.25 22.5C41.25 32.8556 32.8556 41.25 22.5 41.25ZM16.6687 24.6937L11.985 23.2331C10.9725 22.9237 10.9668 22.2262 12.2118 21.7256L30.4612 14.6756C31.5206 14.2443 32.1206 14.79 31.7775 16.1568L28.6706 30.8193C28.4531 31.8637 27.825 32.1131 26.9531 31.6312L22.17 28.0912L19.9406 30.2437C19.7118 30.465 19.5262 30.6543 19.1737 30.7012C18.8231 30.75 18.5343 30.645 18.3225 30.0637L16.6912 24.6806L16.6687 24.6956V24.6937Z" fill="white"/>
</g>
<defs>
<clipPath id="clip0_689_1962">
<rect width="45" height="45" fill="white"/>
</clipPath>
</defs>
</svg>
