<svg width="42" height="30" viewBox="0 0 42 30" fill="none" xmlns="http://www.w3.org/2000/svg">
<path d="M27.2498 15C27.2498 18.4518 24.4516 21.25 20.9998 21.25C17.5481 21.25 14.7498 18.4518 14.7498 15C14.7498 11.5482 17.5481 8.75002 20.9998 8.75002C24.4516 8.75002 27.2498 11.5482 27.2498 15Z" fill="#01C2FF"/>
<path d="M41.6132 14.0683C37.1169 5.07574 29.1313 0.416687 20.9998 0.416687C12.8683 0.416687 4.88274 5.07574 0.386447 14.0683C0.0931894 14.6548 0.0931894 15.3452 0.386447 15.9317C4.88274 24.9243 12.8683 29.5834 20.9998 29.5834C29.1313 29.5834 37.1169 24.9243 41.6132 15.9317C41.9065 15.3452 41.9065 14.6548 41.6132 14.0683ZM20.9998 25.4167C14.8149 25.4167 8.49579 22.0401 4.60329 15C8.49579 7.95998 14.8149 4.58335 20.9998 4.58335C27.1848 4.58335 33.5039 7.95998 37.3964 15C33.5039 22.0401 27.1848 25.4167 20.9998 25.4167Z" fill="#01C2FF"/>
</svg>
