<svg width="21" height="20" viewBox="0 0 21 20" fill="none" xmlns="http://www.w3.org/2000/svg">
<path d="M5.58462 18.1048C5.58462 17.8271 5.57051 17.5478 5.58932 17.2701C5.605 17.0455 5.51722 16.9438 5.29622 16.874C3.9169 16.4369 2.84166 15.6234 2.10969 14.4001C1.60028 13.5486 1.30091 12.6243 1.16454 11.656C0.860468 9.4857 0.866738 7.31839 1.34323 5.1693C1.57991 4.10083 2.03289 3.11886 2.78367 2.28412C3.32756 1.67703 4.02192 1.27787 4.768 0.960667C6.02506 0.426429 7.35735 0.189665 8.71786 0.0667298C9.70846 -0.0228156 10.7006 -0.00915616 11.6897 0.0318223C13.3448 0.101637 14.9546 0.377862 16.4843 1.03959C17.9702 1.68158 18.9216 2.76827 19.4499 4.23287C19.8292 5.28313 20.0047 6.36982 20.0815 7.47624C20.1865 8.99851 20.0894 10.5086 19.8574 12.0127C19.6787 13.1722 19.2586 14.2468 18.4859 15.1696C17.8198 15.9648 16.9734 16.5082 15.9796 16.8375C14.5361 17.3171 13.0455 17.5387 11.5235 17.6146C10.7288 17.6541 9.94043 17.6192 9.15046 17.5888C9.01096 17.5827 8.92162 17.6267 8.83698 17.7239C8.35109 18.2748 7.86206 18.8242 7.36989 19.3706C7.19277 19.5679 7.00782 19.7607 6.76801 19.8897C6.31346 20.134 5.84638 19.961 5.6771 19.4844C5.51722 19.0337 5.60343 18.5647 5.58462 18.1048ZM6.32757 19.2204C6.3887 19.1763 6.41064 19.1657 6.42788 19.1475C7.2445 18.2703 8.07052 17.4021 8.87146 16.5127C9.12538 16.232 9.3793 16.0969 9.78526 16.1136C11.5721 16.1864 13.3323 16.0013 15.0549 15.5156C15.7962 15.3062 16.4608 14.9753 17.0126 14.4456C17.7916 13.6959 18.1991 12.764 18.3762 11.738C18.6144 10.3538 18.7038 8.96057 18.5988 7.55668C18.5251 6.57623 18.3715 5.61248 18.0094 4.6897C17.6771 3.8413 17.1865 3.10672 16.348 2.64382C15.6301 2.24769 14.8605 1.98513 14.0564 1.81363C12.4608 1.47062 10.8464 1.41902 9.22413 1.50249C8.105 1.56017 7.01252 1.74988 5.95453 2.11717C4.43885 2.64382 3.43728 3.63944 2.96235 5.1344C2.71471 5.91299 2.57991 6.70827 2.54229 7.52025C2.47803 8.912 2.4263 10.3022 2.72098 11.6788C3.10969 13.4955 4.08305 14.8615 5.95296 15.4959C6.26174 15.6006 6.33854 15.7448 6.33384 16.0392C6.3166 17.0834 6.32757 18.1291 6.32757 19.2204Z" fill="#864CB2"/>
<path d="M13.4226 14.2103C13.2611 14.2148 13.1138 14.1678 12.968 14.1101C11.3364 13.4651 9.86456 12.5742 8.61064 11.3736C7.12004 9.9485 5.99307 8.29419 5.30498 6.36516C5.08712 5.75656 5.22348 5.27392 5.72818 4.87628C5.95702 4.69567 6.19213 4.51962 6.43665 4.35722C6.88493 4.05671 7.33634 4.09921 7.70154 4.4923C8.16236 4.98708 8.58399 5.51524 8.92725 6.09653C9.00092 6.21946 9.05735 6.35454 9.10437 6.48962C9.20938 6.78557 9.16706 7.05573 8.91315 7.27276C8.74387 7.41846 8.56988 7.55961 8.39904 7.70228C8.18901 7.87985 8.12631 8.09992 8.18587 8.364C8.38807 9.25946 8.96017 9.91511 9.65453 10.4903C10.0683 10.8333 10.5229 11.1096 11.0542 11.2568C11.3301 11.3342 11.5511 11.2674 11.7266 11.0534C11.8301 10.9274 11.9304 10.7999 12.0338 10.6755C12.3113 10.3386 12.7125 10.2293 13.1075 10.4205C13.8599 10.7878 14.5135 11.2947 15.131 11.8426C15.3301 12.0202 15.4335 12.2736 15.3301 12.5377C15.0574 13.242 14.5934 13.7929 13.8818 14.1253C13.7407 14.192 13.5824 14.2178 13.4226 14.2103Z" fill="#864CB2"/>
<path d="M15.1153 8.74799C15.0699 8.88914 15.1937 9.11983 14.979 9.13804C14.7407 9.15777 14.8254 8.91038 14.8144 8.78441C14.7627 8.13331 14.6749 7.49131 14.3834 6.89637C13.6608 5.42266 12.4492 4.62434 10.7721 4.48775C10.6859 4.48016 10.5981 4.48471 10.5119 4.47561C10.4069 4.46346 10.2862 4.44677 10.2972 4.30866C10.3066 4.19027 10.4147 4.17965 10.5135 4.17358C10.758 4.1584 11.0009 4.19483 11.2407 4.23277C13.3207 4.56971 14.8567 6.16938 15.0558 8.20161C15.0746 8.38677 15.0965 8.57041 15.1153 8.74799Z" fill="#864CB2"/>
<path d="M13.9007 8.34125C13.9007 8.35794 13.9023 8.37464 13.9007 8.39133C13.8897 8.50516 13.9226 8.66148 13.7549 8.66907C13.5825 8.67666 13.5935 8.51882 13.5903 8.40651C13.5825 8.11966 13.559 7.83433 13.465 7.55962C13.1045 6.51088 12.3568 5.89924 11.2361 5.708C11.1076 5.68676 10.9775 5.67006 10.8505 5.64881C10.7565 5.63212 10.6797 5.58507 10.6954 5.48186C10.711 5.37714 10.8004 5.35893 10.8944 5.36652C12.2534 5.46365 13.4226 6.21189 13.7925 7.61881C13.8537 7.85406 13.8756 8.09841 13.9164 8.33973C13.9117 8.33973 13.9054 8.34125 13.9007 8.34125Z" fill="#864CB2"/>
<path d="M11.3004 6.60347C12.0841 6.63686 12.7142 7.28948 12.7001 8.04682C12.6986 8.1394 12.7017 8.2502 12.5794 8.26841C12.4258 8.29269 12.4274 8.16217 12.4054 8.06807C12.3678 7.91175 12.3537 7.74935 12.2989 7.60061C12.1625 7.22877 11.8741 7.01629 11.4822 6.92978C11.4149 6.9146 11.3428 6.91309 11.2769 6.89639C11.1735 6.86907 11.023 6.87059 11.0543 6.71123C11.0763 6.57919 11.208 6.60802 11.3004 6.60347Z" fill="#864CB2"/>
</svg>
