<svg width="45" height="45" viewBox="0 0 45 45" fill="none" xmlns="http://www.w3.org/2000/svg">
<path d="M12.9333 38.3044C12.9333 37.7628 12.906 37.2183 12.9423 36.6767C12.9726 36.2386 12.8032 36.0404 12.3765 35.9042C9.71384 35.0519 7.63816 33.4655 6.22513 31.0801C5.24175 29.4198 4.66383 27.6175 4.40059 25.7293C3.81359 21.4971 3.82569 17.2709 4.74553 13.0801C5.20242 10.9966 6.07687 9.08179 7.52621 7.45403C8.57615 6.27021 9.91657 5.49185 11.3568 4.8733C13.7835 3.83154 16.3554 3.36985 18.9818 3.13012C20.8941 2.95551 22.8094 2.98215 24.7186 3.06205C27.9138 3.19819 31.0213 3.73683 33.9745 5.0272C36.8429 6.27909 38.6795 8.39813 39.6992 11.2541C40.4314 13.3021 40.7703 15.4211 40.9186 17.5787C41.1213 20.5471 40.9337 23.4919 40.4859 26.4248C40.141 28.6859 39.3301 30.7812 37.8384 32.5806C36.5524 34.1314 34.9185 35.191 33.0002 35.8332C30.2134 36.7684 27.3359 37.2005 24.3979 37.3485C22.8638 37.4254 21.3419 37.3574 19.8169 37.2982C19.5476 37.2863 19.3751 37.3722 19.2117 37.5616C18.2737 38.6359 17.3297 39.7072 16.3796 40.7727C16.0377 41.1574 15.6807 41.5333 15.2177 41.7849C14.3402 42.2613 13.4386 41.9239 13.1118 40.9946C12.8032 40.1157 12.9696 39.2012 12.9333 38.3044ZM14.3675 40.4797C14.4855 40.3939 14.5278 40.3731 14.5611 40.3376C16.1375 38.627 17.7321 36.9341 19.2783 35.1998C19.7685 34.6523 20.2586 34.3889 21.0423 34.4215C24.4917 34.5635 27.8896 34.2025 31.215 33.2554C32.6461 32.847 33.9291 32.2018 34.9941 31.1689C36.4979 29.7069 37.2846 27.8897 37.6266 25.8891C38.0865 23.19 38.2589 20.4731 38.0562 17.7355C37.914 15.8236 37.6175 13.9443 36.9185 12.1449C36.2771 10.4905 35.33 9.05811 33.7112 8.15544C32.3254 7.383 30.8398 6.871 29.2875 6.53657C26.2073 5.86771 23.0908 5.76709 19.9591 5.92986C17.7987 6.04232 15.6897 6.41227 13.6473 7.12848C10.7214 8.15545 8.78795 10.0969 7.87115 13.0121C7.39307 14.5303 7.13286 16.0811 7.06024 17.6645C6.93618 20.3784 6.83633 23.0894 7.40518 25.7737C8.15557 29.3163 10.0346 31.9799 13.6443 33.2169C14.2404 33.4212 14.3887 33.7023 14.3796 34.2765C14.3463 36.3126 14.3675 38.3518 14.3675 40.4797Z" fill="white"/>
<path d="M28.0639 30.71C27.7522 30.7189 27.4678 30.6271 27.1864 30.5147C24.0366 29.2569 21.1954 27.5196 18.7748 25.1786C15.8973 22.3996 13.7218 19.1737 12.3934 15.4121C11.9729 14.2253 12.2361 13.2842 13.2104 12.5087C13.6522 12.1566 14.106 11.8133 14.578 11.4966C15.4434 10.9106 16.3148 10.9935 17.0198 11.76C17.9094 12.7248 18.7233 13.7547 19.386 14.8882C19.5282 15.128 19.6371 15.3914 19.7279 15.6548C19.9306 16.2319 19.8489 16.7587 19.3588 17.1819C19.032 17.466 18.6961 17.7412 18.3663 18.0194C17.9609 18.3657 17.8398 18.7948 17.9548 19.3098C18.3451 21.0559 19.4495 22.3345 20.7899 23.4561C21.5887 24.125 22.4662 24.6636 23.492 24.9507C24.0245 25.1016 24.4511 24.9714 24.79 24.5541C24.9897 24.3085 25.1834 24.0599 25.3831 23.8172C25.9186 23.1602 26.6932 22.9471 27.4557 23.32C28.9081 24.0362 30.1698 25.0247 31.362 26.0931C31.7463 26.4394 31.946 26.9336 31.7463 27.4486C31.2198 28.8218 30.3241 29.8961 28.9504 30.5443C28.6781 30.6745 28.3725 30.7248 28.0639 30.71Z" fill="white"/>
<path d="M31.3317 20.0586C31.2439 20.3338 31.483 20.7837 31.0685 20.8192C30.6085 20.8577 30.7719 20.3752 30.7508 20.1296C30.6509 18.86 30.4815 17.6081 29.9187 16.4479C28.5238 13.5742 26.1849 12.0175 22.9473 11.7511C22.7809 11.7363 22.6114 11.7452 22.445 11.7274C22.2423 11.7038 22.0093 11.6712 22.0305 11.4019C22.0486 11.171 22.2574 11.1503 22.448 11.1385C22.9201 11.1089 23.3891 11.1799 23.852 11.2539C27.8672 11.9109 30.8324 15.0303 31.2167 18.9931C31.253 19.3542 31.2954 19.7123 31.3317 20.0586Z" fill="white"/>
<path d="M28.9869 19.2654C28.9869 19.298 28.9899 19.3305 28.9869 19.3631C28.9657 19.5851 29.0293 19.8899 28.7055 19.9047C28.3727 19.9195 28.3938 19.6117 28.3878 19.3927C28.3727 18.8333 28.3273 18.2769 28.1457 17.7413C27.4498 15.6962 26.0065 14.5035 23.8431 14.1306C23.595 14.0892 23.3438 14.0566 23.0988 14.0152C22.9172 13.9826 22.7689 13.8909 22.7992 13.6896C22.8295 13.4854 23.0019 13.4499 23.1835 13.4647C25.8068 13.6541 28.064 15.1132 28.7781 17.8567C28.8961 18.3154 28.9385 18.7919 29.0172 19.2625C29.0081 19.2625 28.996 19.2654 28.9869 19.2654Z" fill="white"/>
<path d="M23.9673 15.8768C25.4801 15.9419 26.6965 17.2145 26.6693 18.6913C26.6662 18.8718 26.6723 19.0879 26.4363 19.1234C26.1398 19.1708 26.1428 18.9162 26.1004 18.7327C26.0278 18.4279 26.0006 18.1112 25.8947 17.8212C25.6314 17.0961 25.0747 16.6818 24.3182 16.5131C24.1881 16.4835 24.049 16.4805 23.9219 16.448C23.7222 16.3947 23.4317 16.3977 23.4922 16.0869C23.5346 15.8294 23.7887 15.8856 23.9673 15.8768Z" fill="white"/>
</svg>
