<svg width="41" height="41" viewBox="0 0 41 41" fill="none" xmlns="http://www.w3.org/2000/svg">
<path d="M16.0625 8.04242H5.5C4.11458 8.04242 3 9.157 3 10.5424V33.0424C3 34.4278 4.11458 35.5424 5.5 35.5424H35.5C36.8854 35.5424 38 34.4278 38 33.0424V14.7091C38 13.3237 36.8854 12.2091 35.5 12.2091H6.33333" stroke="#E51A4B" stroke-width="2" stroke-miterlimit="10"/>
<path d="M34.6667 12.2091V10.5424C34.6667 9.157 33.5521 8.04242 32.1667 8.04242L26.1875 8.05284" stroke="#E51A4B" stroke-width="2" stroke-miterlimit="10"/>
<path d="M38 19.7094H27.1667C24.8646 19.7094 23 21.574 23 23.8761C23 26.1782 24.8646 28.0428 27.1667 28.0428H38" stroke="#E51A4B" stroke-width="2" stroke-miterlimit="10"/>
<path d="M28.0007 23.0425H26.334V24.7092H28.0007V23.0425Z" fill="black"/>
<path d="M28.6458 12.2092L23.625 3.73001L8.75 12.2092" stroke="#E51A4B" stroke-width="2" stroke-miterlimit="10"/>
</svg>
