<svg width="40" height="41" viewBox="0 0 40 41" fill="none" xmlns="http://www.w3.org/2000/svg">
<path d="M15.5625 8.04242H5C3.61458 8.04242 2.5 9.157 2.5 10.5424V33.0424C2.5 34.4278 3.61458 35.5424 5 35.5424H35C36.3854 35.5424 37.5 34.4278 37.5 33.0424V14.7091C37.5 13.3237 36.3854 12.2091 35 12.2091H5.83333" stroke="#FF8A01" stroke-width="2" stroke-miterlimit="10"/>
<path d="M34.1667 12.2091V10.5424C34.1667 9.157 33.0521 8.04242 31.6667 8.04242L25.6875 8.05284" stroke="#FF8A01" stroke-width="2" stroke-miterlimit="10"/>
<path d="M37.5 19.7094H26.6667C24.3646 19.7094 22.5 21.574 22.5 23.8761C22.5 26.1782 24.3646 28.0428 26.6667 28.0428H37.5" stroke="#FF8A01" stroke-width="2" stroke-miterlimit="10"/>
<path d="M27.5007 23.0425H25.834V24.7092H27.5007V23.0425Z" fill="black"/>
<path d="M28.1458 12.2092L23.125 3.73001L8.25 12.2092" stroke="#FF8A01" stroke-width="2" stroke-miterlimit="10"/>
</svg>
