<svg width="45" height="45" viewBox="0 0 45 45" fill="none" xmlns="http://www.w3.org/2000/svg">
<g clip-path="url(#clip0_689_1963)">
<path d="M13.5994 34.6762L14.9569 35.4693C17.2461 36.8045 19.8498 37.5054 22.5 37.5C25.4667 37.5 28.3668 36.6202 30.8335 34.972C33.3003 33.3238 35.2229 30.9811 36.3582 28.2402C37.4935 25.4993 37.7906 22.4833 37.2118 19.5736C36.633 16.6639 35.2044 13.9912 33.1066 11.8934C31.0088 9.79558 28.3361 8.36697 25.4263 7.78819C22.5166 7.20941 19.5006 7.50646 16.7597 8.64178C14.0189 9.77709 11.6762 11.6997 10.028 14.1664C8.37973 16.6332 7.49999 19.5332 7.49999 22.5C7.49999 25.1925 8.20687 27.7743 9.53249 30.045L10.3237 31.4025L9.09937 35.9043L13.5994 34.6762ZM3.75749 41.25L6.29249 31.935C4.62213 29.0716 3.74455 25.815 3.74999 22.5C3.74999 12.1443 12.1444 3.74997 22.5 3.74997C32.8556 3.74997 41.25 12.1443 41.25 22.5C41.25 32.8556 32.8556 41.25 22.5 41.25C19.1865 41.2553 15.9312 40.3784 13.0687 38.7093L3.75749 41.25ZM15.7331 13.7025C15.9844 13.6837 16.2375 13.6837 16.4887 13.695C16.59 13.7025 16.6912 13.7137 16.7925 13.725C17.0906 13.7587 17.4187 13.9406 17.5294 14.1918C18.0881 15.4593 18.6319 16.7362 19.1569 18.0168C19.2731 18.3018 19.2037 18.6675 18.9825 19.0237C18.8303 19.2646 18.6657 19.4974 18.4894 19.7212C18.2775 19.9931 17.8219 20.4918 17.8219 20.4918C17.8219 20.4918 17.6362 20.7131 17.7075 20.9887C17.7337 21.0937 17.82 21.2456 17.8987 21.3731L18.0094 21.5512C18.4894 22.3518 19.1344 23.1637 19.9219 23.9287C20.1469 24.1462 20.3662 24.3693 20.6025 24.5775C21.48 25.3518 22.4737 25.9837 23.5462 26.4525L23.5556 26.4562C23.715 26.5256 23.7956 26.5631 24.0281 26.6625C24.1444 26.7112 24.2644 26.7543 24.3862 26.7862C24.5122 26.8183 24.6448 26.8123 24.7673 26.7689C24.8898 26.7255 24.9967 26.6467 25.0744 26.5425C26.4319 24.8981 26.5556 24.7912 26.5669 24.7912V24.795C26.6612 24.707 26.7732 24.6402 26.8955 24.5992C27.0177 24.5581 27.1473 24.5437 27.2756 24.5568C27.3881 24.5643 27.5025 24.585 27.6075 24.6318C28.6031 25.0875 30.2325 25.7981 30.2325 25.7981L31.3237 26.2875C31.5075 26.3756 31.6744 26.5837 31.68 26.7843C31.6875 26.91 31.6987 27.1125 31.6556 27.4837C31.5956 27.9693 31.4494 28.5525 31.3031 28.8581C31.203 29.0667 31.07 29.2578 30.9094 29.4243C30.7202 29.623 30.513 29.8038 30.2906 29.9643C30.2137 30.0222 30.1355 30.0785 30.0562 30.1331C29.823 30.2811 29.5834 30.4187 29.3381 30.5456C28.8554 30.802 28.3222 30.9492 27.7762 30.9768C27.4294 30.9956 27.0825 31.0218 26.7337 31.0031C26.7187 31.0031 25.6687 30.84 25.6687 30.84C23.003 30.1388 20.5376 28.8252 18.4687 27.0037C18.045 26.6306 17.6531 26.2293 17.2519 25.83C15.5831 24.1706 14.3231 22.38 13.5581 20.6887C13.1666 19.8586 12.9551 18.9551 12.9375 18.0375C12.9298 16.8991 13.3019 15.7906 13.995 14.8875C14.1319 14.7112 14.2612 14.5275 14.4844 14.3156C14.7225 14.0906 14.8725 13.9706 15.0356 13.8881C15.2525 13.7794 15.4891 13.7156 15.7312 13.7006L15.7331 13.7025Z" fill="white"/>
</g>
<defs>
<clipPath id="clip0_689_1963">
<rect width="45" height="45" fill="white"/>
</clipPath>
</defs>
</svg>
