<svg width="38" height="39" viewBox="0 0 38 39" fill="none" xmlns="http://www.w3.org/2000/svg">
<path d="M9.89078 35.3044C9.89078 34.7628 9.86354 34.2183 9.89985 33.6767C9.93011 33.2386 9.76067 33.0404 9.33404 32.9042C6.67136 32.0519 4.59568 30.4655 3.18265 28.0801C2.19927 26.4198 1.62135 24.6175 1.35811 22.7293C0.771111 18.4971 0.783214 14.2709 1.70305 10.0801C2.15994 7.99662 3.03439 6.08179 4.48373 4.45403C5.53367 3.27021 6.87409 2.49185 8.31435 1.8733C10.741 0.831537 13.3129 0.369847 15.9393 0.130123C17.8516 -0.0444905 19.7669 -0.0178545 21.6761 0.0620534C24.8714 0.198193 27.9788 0.736831 30.932 2.0272C33.8004 3.27909 35.637 5.39813 36.6567 8.2541C37.389 10.3021 37.7278 12.4211 37.8761 14.5787C38.0788 17.5471 37.8912 20.4919 37.4434 23.4248C37.0985 25.6859 36.2876 27.7812 34.7959 29.5806C33.5099 31.1314 31.876 32.191 29.9577 32.8332C27.1709 33.7684 24.2934 34.2005 21.3554 34.3485C19.8214 34.4254 18.2994 34.3574 16.7744 34.2982C16.5051 34.2863 16.3326 34.3722 16.1692 34.5616C15.2313 35.6359 14.2872 36.7072 13.3371 37.7727C12.9952 38.1574 12.6382 38.5333 12.1752 38.7849C11.2978 39.2613 10.3961 38.9239 10.0693 37.9946C9.76067 37.1157 9.92709 36.2012 9.89078 35.3044ZM11.325 37.4797C11.443 37.3939 11.4854 37.3731 11.5186 37.3376C13.0951 35.627 14.6896 33.9341 16.2358 32.1998C16.726 31.6523 17.2162 31.3889 17.9998 31.4215C21.4492 31.5635 24.8472 31.2025 28.1725 30.2554C29.6037 29.847 30.8866 29.2018 31.9517 28.1689C33.4555 26.7069 34.2422 24.8897 34.5841 22.8891C35.044 20.19 35.2165 17.4731 35.0137 14.7355C34.8715 12.8236 34.575 10.9443 33.876 9.14492C33.2346 7.49053 32.2875 6.05811 30.6687 5.15544C29.2829 4.383 27.7973 3.871 26.2451 3.53657C23.1648 2.86771 20.0483 2.76709 16.9166 2.92986C14.7562 3.04232 12.6473 3.41227 10.6049 4.12848C7.67894 5.15545 5.74547 7.09691 4.82867 10.0121C4.35059 11.5303 4.09038 13.0811 4.01776 14.6645C3.8937 17.3784 3.79385 20.0894 4.3627 22.7737C5.11309 26.3163 6.99209 28.9799 10.6018 30.2169C11.1979 30.4212 11.3462 30.7023 11.3371 31.2765C11.3038 33.3126 11.325 35.3518 11.325 37.4797Z" fill="white"/>
<path d="M25.0214 27.71C24.7098 27.7189 24.4253 27.6271 24.1439 27.5147C20.9941 26.2569 18.1529 24.5196 15.7323 22.1786C12.8548 19.3996 10.6793 16.1737 9.35096 12.4121C8.93038 11.2253 9.19362 10.2842 10.1679 9.50875C10.6097 9.15656 11.0635 8.81325 11.5356 8.49658C12.4009 7.91059 13.2724 7.99346 13.9774 8.75998C14.8669 9.7248 15.6809 10.7547 16.3435 11.8882C16.4857 12.128 16.5946 12.3914 16.6854 12.6548C16.8881 13.2319 16.8065 13.7587 16.3163 14.1819C15.9895 14.466 15.6536 14.7412 15.3238 15.0194C14.9184 15.3657 14.7973 15.7948 14.9123 16.3098C15.3026 18.0559 16.4071 19.3345 17.7475 20.4561C18.5463 21.125 19.4237 21.6636 20.4495 21.9507C20.982 22.1016 21.4086 21.9714 21.7475 21.5541C21.9472 21.3085 22.1409 21.0599 22.3406 20.8172C22.8761 20.1602 23.6507 19.9471 24.4132 20.32C25.8656 21.0362 27.1273 22.0247 28.3195 23.0931C28.7038 23.4394 28.9035 23.9336 28.7038 24.4486C28.1773 25.8218 27.2817 26.8961 25.908 27.5443C25.6356 27.6745 25.33 27.7248 25.0214 27.71Z" fill="white"/>
<path d="M28.2892 17.0586C28.2015 17.3338 28.4405 17.7837 28.026 17.8192C27.5661 17.8577 27.7295 17.3752 27.7083 17.1296C27.6084 15.86 27.439 14.6081 26.8762 13.4479C25.4813 10.5742 23.1424 9.01747 19.9048 8.75111C19.7384 8.73631 19.569 8.74519 19.4025 8.72743C19.1998 8.70376 18.9668 8.6712 18.988 8.40188C19.0062 8.17104 19.2149 8.15032 19.4056 8.13848C19.8776 8.10889 20.3466 8.17992 20.8095 8.2539C24.8247 8.91092 27.79 12.0303 28.1742 15.9931C28.2105 16.3542 28.2529 16.7123 28.2892 17.0586Z" fill="white"/>
<path d="M25.9444 16.2654C25.9444 16.298 25.9474 16.3305 25.9444 16.3631C25.9232 16.5851 25.9868 16.8899 25.663 16.9047C25.3302 16.9195 25.3514 16.6117 25.3453 16.3927C25.3302 15.8333 25.2848 15.2769 25.1033 14.7413C24.4073 12.6962 22.964 11.5035 20.8006 11.1306C20.5525 11.0892 20.3014 11.0566 20.0563 11.0152C19.8747 10.9826 19.7265 10.8909 19.7567 10.6896C19.787 10.4854 19.9594 10.4499 20.141 10.4647C22.7643 10.6541 25.0216 12.1132 25.7356 14.8567C25.8536 15.3154 25.896 15.7919 25.9747 16.2625C25.9656 16.2625 25.9535 16.2654 25.9444 16.2654Z" fill="white"/>
<path d="M20.9248 12.8768C22.4377 12.9419 23.654 14.2145 23.6268 15.6913C23.6238 15.8718 23.6298 16.0879 23.3938 16.1234C23.0973 16.1708 23.1003 15.9162 23.0579 15.7327C22.9853 15.4279 22.9581 15.1112 22.8522 14.8212C22.5889 14.0961 22.0322 13.6818 21.2758 13.5131C21.1457 13.4835 21.0065 13.4805 20.8794 13.448C20.6797 13.3947 20.3892 13.3977 20.4497 13.0869C20.4921 12.8294 20.7463 12.8856 20.9248 12.8768Z" fill="white"/>
</svg>
