<svg width="39" height="39" viewBox="0 0 39 39" fill="none" xmlns="http://www.w3.org/2000/svg">
<path d="M10.5569 31.6762L11.9144 32.4693C14.2037 33.8045 16.8074 34.5054 19.4575 34.5C22.4243 34.5 25.3244 33.6202 27.7911 31.972C30.2578 30.3238 32.1804 27.9811 33.3157 25.2402C34.451 22.4993 34.7481 19.4833 34.1693 16.5736C33.5905 13.6639 32.1619 10.9912 30.0641 8.89337C27.9664 6.79558 25.2936 5.36697 22.3839 4.78819C19.4742 4.20941 16.4582 4.50646 13.7173 5.64178C10.9764 6.77709 8.63372 8.69968 6.9855 11.1664C5.33728 13.6332 4.45754 16.5332 4.45754 19.5C4.45754 22.1925 5.16442 24.7743 6.49004 27.045L7.28129 28.4025L6.05692 32.9043L10.5569 31.6762ZM0.715045 38.25L3.25004 28.935C1.57968 26.0716 0.7021 22.815 0.707545 19.5C0.707545 9.14434 9.10192 0.749969 19.4575 0.749969C29.8132 0.749969 38.2075 9.14434 38.2075 19.5C38.2075 29.8556 29.8132 38.25 19.4575 38.25C16.144 38.2553 12.8888 37.3784 10.0263 35.7093L0.715045 38.25ZM12.6907 10.7025C12.9419 10.6837 13.195 10.6837 13.4463 10.695C13.5475 10.7025 13.6488 10.7137 13.75 10.725C14.0482 10.7587 14.3763 10.9406 14.4869 11.1918C15.0457 12.4593 15.5894 13.7362 16.1144 15.0168C16.2307 15.3018 16.1613 15.6675 15.94 16.0237C15.7879 16.2646 15.6233 16.4974 15.4469 16.7212C15.235 16.9931 14.7794 17.4918 14.7794 17.4918C14.7794 17.4918 14.5938 17.7131 14.665 17.9887C14.6913 18.0937 14.7775 18.2456 14.8563 18.3731L14.9669 18.5512C15.4469 19.3518 16.0919 20.1637 16.8794 20.9287C17.1044 21.1462 17.3238 21.3693 17.56 21.5775C18.4375 22.3518 19.4313 22.9837 20.5038 23.4525L20.5132 23.4562C20.6725 23.5256 20.7532 23.5631 20.9857 23.6625C21.1019 23.7112 21.2219 23.7543 21.3438 23.7862C21.4697 23.8183 21.6024 23.8123 21.7249 23.7689C21.8474 23.7255 21.9542 23.6467 22.0319 23.5425C23.3894 21.8981 23.5132 21.7912 23.5244 21.7912V21.795C23.6187 21.707 23.7308 21.6402 23.853 21.5992C23.9753 21.5581 24.1049 21.5437 24.2332 21.5568C24.3457 21.5643 24.46 21.585 24.565 21.6318C25.5607 22.0875 27.19 22.7981 27.19 22.7981L28.2813 23.2875C28.465 23.3756 28.6319 23.5837 28.6375 23.7843C28.645 23.91 28.6563 24.1125 28.6132 24.4837C28.5532 24.9693 28.4069 25.5525 28.2607 25.8581C28.1605 26.0667 28.0276 26.2578 27.8669 26.4243C27.6777 26.623 27.4706 26.8038 27.2482 26.9643C27.1712 27.0222 27.0931 27.0785 27.0138 27.1331C26.7806 27.2811 26.541 27.4187 26.2957 27.5456C25.8129 27.802 25.2797 27.9492 24.7338 27.9768C24.3869 27.9956 24.04 28.0218 23.6913 28.0031C23.6763 28.0031 22.6263 27.84 22.6263 27.84C19.9605 27.1388 17.4951 25.8252 15.4263 24.0037C15.0025 23.6306 14.6107 23.2293 14.2094 22.83C12.5407 21.1706 11.2807 19.38 10.5157 17.6887C10.1241 16.8586 9.91261 15.9551 9.89504 15.0375C9.88731 13.8991 10.2594 12.7906 10.9525 11.8875C11.0894 11.7112 11.2188 11.5275 11.4419 11.3156C11.68 11.0906 11.83 10.9706 11.9932 10.8881C12.2101 10.7794 12.4467 10.7156 12.6888 10.7006L12.6907 10.7025Z" fill="white"/>
</svg>
