<svg width="40" height="39" viewBox="0 0 40 39" fill="none" xmlns="http://www.w3.org/2000/svg">
<path d="M19.9785 34.5C24.0414 34.5 27.9379 32.9196 30.8108 30.1066C33.6837 27.2935 35.2977 23.4782 35.2977 19.5C35.2977 15.5217 33.6837 11.7064 30.8108 8.89337C27.9379 6.08032 24.0414 4.49997 19.9785 4.49997C15.9156 4.49997 12.0192 6.08032 9.14625 8.89337C6.27336 11.7064 4.65938 15.5217 4.65938 19.5C4.65938 23.4782 6.27336 27.2935 9.14625 30.1066C12.0192 32.9196 15.9156 34.5 19.9785 34.5ZM19.9785 38.25C9.40257 38.25 0.82959 29.8556 0.82959 19.5C0.82959 9.14435 9.40257 0.749969 19.9785 0.749969C30.5545 0.749969 39.1275 9.14435 39.1275 19.5C39.1275 29.8556 30.5545 38.25 19.9785 38.25ZM14.0232 21.6937L9.2398 20.2331C8.20576 19.9237 8.20002 19.2262 9.47151 18.7256L28.1092 11.6756C29.1911 11.2443 29.8038 11.79 29.4534 13.1568L26.2804 27.8193C26.0583 28.8637 25.4168 29.1131 24.5264 28.6312L19.6415 25.0912L17.3647 27.2437C17.1311 27.465 16.9415 27.6543 16.5815 27.7012C16.2234 27.75 15.9285 27.645 15.7121 27.0637L14.0462 21.6806L14.0232 21.6956V21.6937Z" fill="white"/>
</svg>
