<svg width="132" height="72" viewBox="0 0 132 72" fill="none" xmlns="http://www.w3.org/2000/svg">
<path fill-rule="evenodd" clip-rule="evenodd" d="M72.3544 70.6297H73.124L73.9422 64.0352L77.081 70.9863L80.2199 64.0352L81.0382 70.6297H81.8076L80.6474 61.3618L77.0812 69.3058L73.5149 61.3618L72.3544 70.6297ZM89.2573 70.6297H93.8372V69.9168H90.0871V65.9958H93.7023V65.283H90.0871V62.4311H93.8367V61.7182H89.2573V70.6297ZM101.458 70.6297H103.583C105.081 70.6297 106.187 70.2499 106.899 69.4903C107.57 68.8132 108.02 67.934 108.188 66.9761C108.204 66.8402 108.218 66.7066 108.23 66.5751C108.243 66.4435 108.249 66.3099 108.249 66.174C108.249 66.0124 108.24 65.8509 108.224 65.6901C108.207 65.5277 108.183 65.3662 108.15 65.2064C107.979 64.3324 107.538 63.5325 106.825 62.8067C106.113 62.081 105.032 61.7181 103.583 61.7182H101.458V70.6297H101.458ZM102.289 69.9168V62.4311H103.498C104.711 62.4311 105.659 62.7812 106.343 63.4815C107.027 64.1817 107.369 65.0792 107.369 66.174C107.376 67.1183 107.07 68.0362 106.501 68.7711C105.923 69.5348 104.922 69.9167 103.497 69.9168H102.288H102.289ZM115.87 70.6297H116.7V61.7182H115.87V70.6297ZM123.771 70.6297H124.626L125.811 67.7271H129.389L130.574 70.6297H131.429L127.606 61.4636L123.771 70.6297ZM126.104 67.0142L127.607 63.3604L129.097 67.0142H126.105H126.104Z" fill="white"/>
<path fill-rule="evenodd" clip-rule="evenodd" d="M3.33802 70.9862L6.67609 61.7727H5.77123L3.33802 68.7714L0.904671 61.7727H-0.000183105L3.33802 70.9862ZM13.7559 70.6317H14.5875V61.7727H13.7557V70.6317H13.7559ZM21.667 70.6317H22.5228L23.7088 67.7462H27.2915L28.4776 70.6317H29.3333L25.5061 61.5195L21.667 70.6317ZM24.0024 67.0375L25.5064 63.4052L26.9982 67.0375H24.0023H24.0024ZM37.7582 70.6317H38.5897V62.4813H40.8766V61.7727H35.4715V62.4813H37.7583V70.6317H37.7582ZM47.9559 70.6317H52.5413V69.923H48.787V66.0251H52.4064V65.3164H48.787V62.4813H52.541V61.7727H47.9558V70.6317H47.9559ZM60.1712 70.6317H61.0032V66.3288L64.8305 70.6317H65.9432L61.7974 66.063L65.8572 61.7727H64.8302L61.0032 65.8858V61.7727H60.1711V70.6317H60.1712Z" fill="#01C3FF"/>
<path fill-rule="evenodd" clip-rule="evenodd" d="M18.732 0.321322H0L21.925 50.5067H40.1347L60.7444 0.301758H48.5847L33.5615 36.4718L18.732 0.321322Z" fill="white"/>
<path fill-rule="evenodd" clip-rule="evenodd" d="M40.1915 50.4751H21.9145L43.5357 0.305908H60.6511L82.2022 50.2793H69.4957L55.0114 14.2809L40.1915 50.4751Z" fill="#0187D2"/>
<path fill-rule="evenodd" clip-rule="evenodd" d="M43.5677 0.301758L60.6544 0.321322L73.8631 29.9926L86.7074 0.305863H90.5059L90.5076 0.301758H96.6838L96.6821 0.305863H109.728L131.28 50.2793H112.667L98.1829 14.2809L83.559 50.2793H76.3021L76.302 50.2794H63.9495L43.5677 0.301758Z" fill="#01C2FF"/>
</svg>
