<?xml version="1.0" encoding="utf-8"?><svg viewBox="0 0 132 72" xmlns="http://www.w3.org/2000/svg" xmlns:xlink="http://www.w3.org/1999/xlink"><style>:root>svg{display:none}:root>svg:target{display:block}</style><svg fill="none" viewBox="0 0 29 26" id="Icon" xmlns="http://www.w3.org/2000/svg"><path d="M0 2.889A2.894 2.894 0 0 1 2.9 0h23.2C27.702 0 29 1.293 29 2.889v15.889a2.894 2.894 0 0 1-2.9 2.889h-6.65l-3.925 3.91a1.454 1.454 0 0 1-2.05 0l-3.926-3.91H2.9a2.894 2.894 0 0 1-2.9-2.89V2.89Zm26.1 0H2.9v15.889h7.25c.385 0 .753.152 1.025.423l3.325 3.312 3.325-3.312c.272-.271.64-.423 1.025-.423h7.25V2.888ZM5.8 7.944c0-.797.65-1.444 1.45-1.444h14.5c.8 0 1.45.647 1.45 1.444 0 .798-.65 1.445-1.45 1.445H7.25c-.8 0-1.45-.647-1.45-1.445Zm0 5.778c0-.797.65-1.444 1.45-1.444h8.7c.8 0 1.45.646 1.45 1.444 0 .798-.65 1.445-1.45 1.445h-8.7c-.8 0-1.45-.647-1.45-1.445Z" fill="#01C2FF"/></svg><svg fill="none" viewBox="0 0 10 6" id="arrow" xmlns="http://www.w3.org/2000/svg"><path fill-rule="evenodd" clip-rule="evenodd" d="M9.78.22a.75.75 0 0 1 0 1.06L5.53 5.53a.75.75 0 0 1-1.06 0L.22 1.28A.75.75 0 0 1 1.28.22L5 3.94 8.72.22a.75.75 0 0 1 1.06 0Z" fill="#474747"/></svg><svg fill="none" viewBox="0 0 24 24" id="arrow-slider" xmlns="http://www.w3.org/2000/svg"><rect width="24" height="24" rx="3" fill="#01C2FF"/><path d="M9.08 12.126a.947.947 0 0 1 0-1.345l4.415-4.398a.952.952 0 0 1 1.342 1.346l-3.74 3.724 3.74 3.724a.949.949 0 1 1-1.342 1.346L9.08 12.126Z" fill="#fff"/></svg><svg fill="none" viewBox="0 0 7 12" id="arrowBlue" xmlns="http://www.w3.org/2000/svg"><path d="m1 11 5-5-5-5" stroke="#01C2FF" stroke-width="1.5" stroke-linecap="round" stroke-linejoin="round"/></svg><svg fill="none" viewBox="0 0 8 8" id="arrowBread" xmlns="http://www.w3.org/2000/svg"><path d="M4.146.646a.5.5 0 0 1 .708 0l3 3a.5.5 0 0 1 0 .708l-3 3a.5.5 0 1 1-.708-.708L6.293 4.5H.5a.5.5 0 0 1 0-1h5.793L4.146 1.354a.5.5 0 0 1 0-.708Z" fill="#BBB"/></svg><svg fill="none" viewBox="0 0 8 14" id="arrowRight" xmlns="http://www.w3.org/2000/svg"><path d="M.293 13.707a1 1 0 0 1 0-1.414L5.586 7 .293 1.707A1 1 0 0 1 1.707.293l6 6a1 1 0 0 1 0 1.414l-6 6a1 1 0 0 1-1.414 0Z" fill="#474747"/></svg><svg fill="none" viewBox="0 0 7 12" id="arrowWhite" xmlns="http://www.w3.org/2000/svg"><path d="m1 11 5-5-5-5" stroke="#fff" stroke-width="1.5" stroke-linecap="round" stroke-linejoin="round"/></svg><svg fill="none" viewBox="0 0 24 25" id="blog" xmlns="http://www.w3.org/2000/svg"><path fill-rule="evenodd" clip-rule="evenodd" d="m7.353 12.496-.093 3.71a.74.74 0 0 0 .737.754h3.686c.766 0 1.488-.298 2.03-.84l7.385-7.372A3.05 3.05 0 0 0 22 6.572c0-.82-.32-1.594-.902-2.175L19.9 3.202a3.087 3.087 0 0 0-4.358 0l-7.35 7.338a2.857 2.857 0 0 0-.84 1.956Zm1.474.037c.01-.36.155-.698.41-.952l5.701-5.693 1.873 1.872a.739.739 0 0 0 1.044 0 .737.737 0 0 0 0-1.042l-1.874-1.871.605-.604a1.61 1.61 0 0 1 2.272 0l1.197 1.196a1.604 1.604 0 0 1 0 2.268l-7.384 7.372a1.387 1.387 0 0 1-.988.408H8.754l.073-2.954Zm-6.089.212c.407 0 .738-.33.738-.736v-3.77c0-2.69 1.641-4.427 4.182-4.427h3.677a.737.737 0 1 0 0-1.472H7.659C4.274 2.34 2 4.71 2 8.24v3.769c0 .406.33.736.738.736Zm18.52-1.033a.736.736 0 0 0-.737.736v3.954c0 2.69-1.642 4.427-4.185 4.427H7.658c-2.54 0-4.182-1.737-4.182-4.427a.737.737 0 0 0-1.476 0c0 3.529 2.274 5.9 5.658 5.9h8.678c3.386 0 5.66-2.371 5.66-5.9v-3.954a.737.737 0 0 0-.737-.736Z" fill="#fff"/></svg><svg fill="none" viewBox="0 0 30 34" id="calendar" xmlns="http://www.w3.org/2000/svg"><path d="M26.667 33.667H3.333A3.333 3.333 0 0 1 0 30.333V7a3.333 3.333 0 0 1 3.333-3.333h3.334V.333H10v3.334h10V.333h3.333v3.334h3.334A3.333 3.333 0 0 1 30 7v23.333a3.333 3.333 0 0 1-3.333 3.334Zm-23.334-20v16.666h23.334V13.667H3.333Zm0-6.667v3.333h23.334V7H3.333Zm10 20.69-6.178-6.178 2.357-2.357 3.821 3.822 7.155-7.155 2.357 2.356-9.512 9.51v.002Z" fill="#01C2FF"/></svg><svg fill="none" viewBox="0 0 24 24" id="call" xmlns="http://www.w3.org/2000/svg"><path fill-rule="evenodd" clip-rule="evenodd" d="M2.244 4.138c-.618.849-.574 1.937.09 3.394a.9.9 0 0 1-1.639.745C-.249 6.205-.23 4.476.748 3.14 1.113 2.53 3.406-.124 5.375.005c.62.051 1.186.339 1.718.857.566.553 2.944 3.446 3.135 4.361.205.984-.237 1.752-.56 2.313v.002c-.318.553-.429.789-.32 1.088.803 1.963 2.044 3.568 3.677 4.734a.9.9 0 0 1-1.047 1.464c-1.913-1.368-3.363-3.236-4.31-5.552-.416-1.145.079-2.004.44-2.631.271-.47.421-.751.357-1.051-.168-.433-1.922-2.749-2.63-3.439-.218-.214-.424-.34-.576-.352-.86-.02-2.616 1.678-3.015 2.339Zm16.533 9.63c.92.19 3.81 2.568 4.363 3.133.521.532.81 1.1.858 1.684.078 2.21-2.882 4.52-3.222 4.715-.645.465-1.402.7-2.255.7-.847 0-1.788-.233-2.806-.708-3.918-1.626-9.844-6.9-13.178-11.74a.9.9 0 1 1 1.482-1.019c3.114 4.52 8.802 9.61 12.422 11.114 1.464.68 2.553.722 3.365.14.632-.383 2.428-2.167 2.396-3.095-.01-.11-.136-.315-.348-.532-.691-.707-3.01-2.462-3.496-2.644-.383-.082-.78.15-1.388.533l-.307.191a.9.9 0 0 1-.93-1.541l.278-.172c.672-.423 1.6-1.001 2.766-.759Z" fill="#01C2FF"/></svg><svg fill="none" viewBox="0 0 27 27" id="call1" xmlns="http://www.w3.org/2000/svg"><path d="M13.5 23.833a10.333 10.333 0 1 0 0-20.666 10.333 10.333 0 0 0 0 20.666Zm0 2.584C6.366 26.417.583 20.634.583 13.5.583 6.366 6.366.583 13.5.583c7.134 0 12.917 5.783 12.917 12.917 0 7.134-5.783 12.917-12.917 12.917ZM9.483 15.01l-3.227-1.006c-.697-.213-.701-.694.157-1.038L18.984 8.11c.73-.297 1.143.079.907 1.02l-2.14 10.101c-.15.72-.583.891-1.183.56l-3.295-2.44-1.536 1.484c-.158.152-.286.282-.528.315-.242.033-.441-.039-.587-.44l-1.124-3.708-.015.01Z" fill="#AFAFAF"/></svg><svg fill="none" viewBox="0 0 26 27" id="call2" xmlns="http://www.w3.org/2000/svg"><path d="m6.924 21.888.935.546c1.577.92 3.37 1.403 5.197 1.4A10.334 10.334 0 1 0 2.722 13.5c0 1.855.487 3.634 1.4 5.198l.546.935-.844 3.101 3.1-.846Zm-6.78 4.529L1.89 20A12.857 12.857 0 0 1 .14 13.5C.139 6.366 5.922.583 13.056.583c7.133 0 12.916 5.783 12.916 12.917 0 7.134-5.783 12.917-12.916 12.917-2.283.003-4.526-.6-6.497-1.75l-6.415 1.75ZM8.394 7.44c.173-.013.347-.013.52-.006l.21.021c.205.023.431.149.507.322.385.873.76 1.752 1.122 2.635.08.196.032.448-.12.693a5.665 5.665 0 0 1-.34.48c-.146.188-.46.532-.46.532s-.128.152-.079.342c.018.072.078.177.132.265l.076.123c.33.551.775 1.11 1.318 1.637.155.15.306.304.468.447.605.534 1.29.969 2.028 1.292l.007.003.325.142c.08.033.163.063.247.085a.452.452 0 0 0 .474-.168c.935-1.133 1.02-1.207 1.028-1.207v.003a.623.623 0 0 1 .489-.164.67.67 0 0 1 .228.052c.686.314 1.808.803 1.808.803l.752.337c.127.06.242.204.246.342.005.087.012.226-.017.482-.041.335-.142.736-.243.947-.069.144-.16.276-.271.39-.13.137-.273.262-.427.372-.053.04-.106.079-.161.116-.16.102-.326.197-.495.285-.332.176-.7.278-1.076.297-.239.013-.478.03-.718.018-.01 0-.733-.113-.733-.113a12.205 12.205 0 0 1-4.96-2.642c-.292-.257-.562-.534-.839-.809-1.15-1.143-2.017-2.377-2.544-3.542a4.482 4.482 0 0 1-.428-1.826 3.525 3.525 0 0 1 .729-2.17c.094-.122.183-.248.337-.394.164-.155.267-.238.38-.295.149-.074.312-.118.479-.129l.001.002Z" fill="#AFAFAF"/></svg><svg fill="none" viewBox="0 0 27 27" id="call3" xmlns="http://www.w3.org/2000/svg"><path d="M7.021 24.387c0-.373-.019-.748.006-1.12.021-.303-.096-.44-.39-.533-1.834-.587-3.264-1.68-4.237-3.323-.678-1.144-1.076-2.386-1.257-3.686-.404-2.916-.396-5.827.238-8.714.314-1.436.917-2.755 1.915-3.876.723-.816 1.647-1.352 2.639-1.778C7.607.64 9.378.321 11.188.157 12.505.035 13.824.053 15.14.108c2.2.094 4.342.465 6.376 1.354 1.976.863 3.241 2.322 3.944 4.29.504 1.41.738 2.87.84 4.357.14 2.045.01 4.073-.298 6.094-.238 1.557-.797 3-1.824 4.24-.886 1.069-2.012 1.799-3.333 2.241-1.92.644-3.902.942-5.926 1.044-1.057.053-2.105.006-3.156-.035a.47.47 0 0 0-.417.182c-.646.74-1.296 1.478-1.95 2.212-.236.265-.482.524-.801.697-.605.328-1.226.096-1.451-.544-.213-.606-.098-1.236-.123-1.854Zm.988 1.499c.081-.06.11-.073.133-.098 1.086-1.178 2.185-2.345 3.25-3.54.338-.376.675-.558 1.215-.535 2.376.097 4.717-.151 7.008-.804.986-.281 1.87-.726 2.604-1.437 1.035-1.007 1.577-2.26 1.813-3.637.317-1.86.436-3.731.296-5.617-.098-1.317-.302-2.612-.784-3.852-.442-1.14-1.094-2.126-2.21-2.748-.954-.532-1.977-.885-3.047-1.115-2.122-.46-4.269-.53-6.426-.418-1.488.077-2.941.332-4.348.826-2.016.707-3.348 2.045-3.98 4.053a12.526 12.526 0 0 0-.558 3.205c-.085 1.87-.154 3.737.238 5.586.517 2.44 1.811 4.275 4.298 5.128.41.14.513.334.506.73-.023 1.402-.008 2.807-.008 4.273Z" fill="#AFAFAF"/><path d="M17.444 19.156c-.214.006-.41-.057-.604-.135-2.17-.866-4.127-2.063-5.795-3.676-1.982-1.914-3.48-4.136-4.396-6.728-.29-.817-.108-1.466.563-2 .304-.242.617-.479.942-.697.596-.404 1.197-.347 1.682.181.613.665 1.174 1.374 1.63 2.155.098.165.173.347.236.528.14.398.083.76-.255 1.052-.225.196-.456.386-.683.577-.28.239-.363.534-.284.89.27 1.202 1.03 2.083 1.953 2.856.55.46 1.155.832 1.862 1.03.367.103.66.014.894-.274.137-.17.27-.34.409-.508.368-.452.902-.599 1.427-.342 1 .493 1.87 1.174 2.691 1.91.265.239.403.58.265.934-.363.946-.98 1.686-1.926 2.133a1.27 1.27 0 0 1-.61.114ZM19.695 11.818c-.06.19.105.5-.18.524-.318.027-.205-.306-.22-.475-.069-.875-.185-1.737-.573-2.536-.96-1.98-2.572-3.052-4.803-3.236-.114-.01-.23-.004-.346-.016-.14-.016-.3-.039-.285-.224.012-.16.156-.174.288-.182.325-.02.648.029.967.08 2.766.452 4.809 2.601 5.073 5.331.025.249.054.496.08.734Z" fill="#AFAFAF"/><path d="M18.08 11.272c0 .022.002.045 0 .067-.014.153.03.363-.194.373-.229.01-.214-.202-.219-.353-.01-.385-.041-.768-.166-1.137-.48-1.41-1.474-2.23-2.964-2.488-.171-.028-.344-.05-.513-.08-.125-.022-.227-.085-.206-.223.02-.141.14-.166.264-.155 1.807.13 3.362 1.135 3.854 3.025.082.316.11.644.165.969l-.02.002Z" fill="#AFAFAF"/><path d="M14.622 8.937c1.042.045 1.88.922 1.862 1.94-.003.124.002.272-.16.297-.205.033-.203-.143-.232-.27-.05-.21-.07-.427-.142-.627-.181-.5-.565-.785-1.086-.901-.09-.02-.186-.023-.273-.045-.138-.037-.338-.035-.296-.249.03-.177.204-.139.327-.145Z" fill="#AFAFAF"/></svg><svg fill="none" viewBox="0 0 40 41" id="certificate" xmlns="http://www.w3.org/2000/svg"><path d="M18.334 15.57H7.5M32.5 10.57h-25M22.5 33.903H3.333V5.57h33.334v28.333H30" stroke="#01C2FF" stroke-width="2.502" stroke-miterlimit="10"/><path d="M26.25 30.57a6.25 6.25 0 1 0 0-12.5 6.25 6.25 0 0 0 0 12.5Z" stroke="#01C2FF" stroke-width="2.502" stroke-miterlimit="10"/><path d="M30 29.32v8.551l-3.75-1.666-3.75 1.666V29.32" stroke="#01C2FF" stroke-width="2.502" stroke-miterlimit="10"/></svg><svg fill="none" viewBox="0 0 30 33" id="checkmark" xmlns="http://www.w3.org/2000/svg"><path d="m20.002 13.167-6.667 6.666L10 16.5m5-15L1.668 8.167c0 8.655 4.64 20.85 13.333 23.333 8.693-2.484 13.334-14.678 13.334-23.333L15 1.5Z" stroke="#01C2FF" stroke-width="1.5" stroke-linecap="round" stroke-linejoin="round"/></svg><svg fill="none" viewBox="0 0 41 41" id="clock" xmlns="http://www.w3.org/2000/svg"><g clip-path="url(#aoa)"><path fill-rule="evenodd" clip-rule="evenodd" d="M4.25 20.57a16.25 16.25 0 1 1 32.5 0 16.25 16.25 0 0 1-32.5 0ZM20.5.57a20 20 0 1 0 0 40 20 20 0 0 0 0-40Zm1.25 11.874a1.875 1.875 0 1 0-3.75 0v8.75a1.876 1.876 0 0 0 1.177 1.74l6.25 2.5a1.875 1.875 0 0 0 1.393-3.48l-5.07-2.03v-7.48Z" fill="#01C2FF"/></g><defs><clipPath id="aoa"><path fill="#fff" transform="translate(.5 .57)" d="M0 0h40v40H0z"/></clipPath></defs></svg><svg fill="none" viewBox="0 0 38 40" id="complex" xmlns="http://www.w3.org/2000/svg"><path fill-rule="evenodd" clip-rule="evenodd" d="M17.572 3.812a16.48 16.48 0 0 1 2.855 0c.09.007.27.092.342.365l.723 2.764c.367 1.4 1.373 2.416 2.493 2.97.434.216.852.458 1.253.725 1.041.696 2.425 1.06 3.822.676l2.758-.756c.272-.075.436.04.487.113a16.24 16.24 0 0 1 1.431 2.472c.037.08.055.279-.146.478l-2.037 2.013c-1.029 1.016-1.406 2.393-1.326 3.64a11.436 11.436 0 0 1 0 1.455c-.08 1.248.297 2.625 1.326 3.642l2.037 2.012c.201.2.183.398.146.478a16.24 16.24 0 0 1-1.43 2.472c-.052.073-.216.188-.488.113l-2.758-.756c-1.397-.384-2.781-.02-3.822.676-.4.267-.819.51-1.253.724-1.12.555-2.126 1.57-2.493 2.971l-.723 2.764c-.071.273-.253.358-.341.365a16.513 16.513 0 0 1-2.857 0c-.088-.008-.27-.092-.341-.365l-.723-2.764c-.367-1.401-1.373-2.416-2.493-2.97a11.26 11.26 0 0 1-1.252-.725c-1.042-.695-2.426-1.06-3.823-.677l-2.758.757c-.272.075-.436-.04-.487-.113a16.232 16.232 0 0 1-1.43-2.472c-.038-.08-.056-.279.145-.478l2.037-2.013c1.029-1.016 1.406-2.393 1.327-3.641a11.465 11.465 0 0 1 0-1.454c.079-1.248-.298-2.625-1.327-3.641L4.41 13.619c-.201-.2-.183-.398-.146-.478.405-.868.885-1.695 1.43-2.472.052-.073.216-.188.488-.113l2.758.757c1.397.383 2.781.018 3.823-.677.4-.267.818-.51 1.252-.724 1.12-.555 2.126-1.57 2.493-2.971l.723-2.764c.071-.273.253-.358.341-.365ZM19 0c-.59 0-1.175.026-1.753.076-1.857.161-3.223 1.537-3.645 3.152l-.723 2.764c-.044.167-.197.395-.53.56-.579.286-1.136.61-1.67.965-.307.206-.581.225-.748.18L7.174 6.94c-1.608-.442-3.479.05-4.548 1.573a19.979 19.979 0 0 0-1.762 3.044c-.787 1.688-.277 3.557.91 4.73l2.036 2.012c.123.122.244.368.22.736a15.209 15.209 0 0 0 0 1.93c.024.368-.097.614-.22.736l-2.037 2.013c-1.186 1.172-1.696 3.04-.909 4.73a19.974 19.974 0 0 0 1.762 3.043c1.07 1.522 2.94 2.015 4.548 1.573l2.757-.756c.167-.046.44-.027.748.178.534.357 1.091.68 1.67.967.333.164.486.392.53.56l.723 2.763c.422 1.616 1.788 2.99 3.645 3.152a20.216 20.216 0 0 0 3.505 0c1.857-.161 3.223-1.536 3.645-3.152l.723-2.764c.044-.167.197-.395.53-.56.579-.286 1.137-.61 1.67-.965.307-.206.581-.225.748-.179l2.757.756c1.609.442 3.479-.05 4.549-1.573a19.983 19.983 0 0 0 1.76-3.043c.788-1.69.279-3.558-.908-4.73L34.189 21.7c-.123-.121-.243-.368-.22-.736a15.21 15.21 0 0 0 0-1.93c-.023-.368.097-.615.22-.736l2.037-2.013c1.187-1.172 1.696-3.04.909-4.73a19.973 19.973 0 0 0-1.761-3.043c-1.07-1.522-2.94-2.015-4.549-1.573l-2.757.756c-.167.046-.44.027-.748-.179a14.984 14.984 0 0 0-1.67-.966c-.333-.164-.486-.392-.53-.56l-.723-2.763C23.975 1.613 22.61.238 20.752.076A20.236 20.236 0 0 0 19 0Zm3.75 20a3.75 3.75 0 1 1-7.5 0 3.75 3.75 0 0 1 7.5 0Zm3.75 0a7.5 7.5 0 1 1-15 0 7.5 7.5 0 0 1 15 0Z" fill="#01C2FF"/></svg><svg fill="none" viewBox="0 0 21 20" id="email" xmlns="http://www.w3.org/2000/svg"><path d="M14.357 10a3.857 3.857 0 1 1-7.714 0 3.857 3.857 0 0 1 7.714 0Zm0 0v1.286a2.571 2.571 0 0 0 5.143 0V10a8.983 8.983 0 0 0-3.343-7M10.5 1a9 9 0 1 0 5.143 16.387" stroke="#01C2FF" stroke-width="1.5" stroke-linecap="round" stroke-linejoin="round"/></svg><svg fill="none" viewBox="0 0 132 72" id="logo" xmlns="http://www.w3.org/2000/svg"><path fill-rule="evenodd" clip-rule="evenodd" d="M72.354 70.828h.77l.818-6.595 3.139 6.951 3.139-6.95.818 6.594h.77l-1.16-9.268-3.567 7.944-3.566-7.944-1.16 9.268Zm16.903 0h4.58v-.713h-3.75v-3.92h3.615v-.714h-3.615V62.63h3.75v-.712h-4.58v8.91Zm12.201 0h2.125c1.498 0 2.604-.38 3.316-1.14a4.73 4.73 0 0 0 1.289-2.514c.016-.136.03-.27.042-.4.013-.132.019-.266.019-.402a4.885 4.885 0 0 0-.099-.967c-.171-.874-.612-1.674-1.325-2.4-.712-.726-1.793-1.089-3.242-1.089h-2.125v8.912Zm.831-.713V62.63h1.209c1.213 0 2.161.35 2.845 1.05.684.701 1.026 1.599 1.026 2.693a4.195 4.195 0 0 1-.868 2.597c-.578.764-1.579 1.146-3.004 1.146h-1.208Zm13.581.713h.83v-8.912h-.83v8.912Zm7.901 0h.855l1.185-2.903h3.578l1.185 2.903h.855l-3.823-9.166-3.835 9.166Zm2.333-3.615 1.503-3.654 1.49 3.654h-2.993Z" fill="#000"/><path fill-rule="evenodd" clip-rule="evenodd" d="m3.338 71.185 3.338-9.214h-.905L3.338 68.97.905 61.97H0l3.338 9.214Zm10.418-.355h.832v-8.859h-.832v8.86Zm7.911 0h.856l1.186-2.885h3.582l1.187 2.885h.855l-3.827-9.112-3.839 9.112Zm2.335-3.594 1.504-3.632 1.492 3.632h-2.996Zm13.756 3.594h.832v-8.15h2.287v-.709H35.47v.709h2.287v8.15Zm10.198 0h4.585v-.709h-3.754v-3.897h3.62v-.71h-3.62V62.68h3.754v-.709h-4.585v8.86Zm12.215 0h.832v-4.303l3.828 4.303h1.112l-4.146-4.569 4.06-4.29H64.83l-3.827 4.113v-4.113h-.832v8.86Z" fill="#01C2FF"/><mask id="asa" style="mask-type:alpha" maskUnits="userSpaceOnUse" x="0" y="0" width="61" height="51"><path fill-rule="evenodd" clip-rule="evenodd" d="M18.732.52H0l21.925 50.185h18.21L60.745.5h-12.16L33.562 36.67 18.732.52Z" fill="#000"/></mask><g mask="url(#asa)"><path fill="url(#asb)" d="M-321.393-1.867H54.591V53.04h-375.984z"/></g><mask id="asc" style="mask-type:alpha" maskUnits="userSpaceOnUse" x="21" y="0" width="62" height="51"><path fill-rule="evenodd" clip-rule="evenodd" d="M40.191 50.673H21.914L43.537.504H60.65l21.551 49.974H69.496L55.01 14.479l-14.82 36.194Z" fill="#1B3E8B"/></mask><g mask="url(#asc)"><path fill="url(#asd)" d="M-321.393-1.867H54.591V53.04h-375.984z"/></g><mask id="ase" style="mask-type:alpha" maskUnits="userSpaceOnUse" x="43" y="0" width="89" height="51"><path fill-rule="evenodd" clip-rule="evenodd" d="m43.568.5 17.086.02 13.21 29.67L86.706.505h3.799L90.507.5h6.177l-.002.004h13.046l21.552 49.973h-18.613L98.183 14.48 83.559 50.477h-19.61L43.568.5Z" fill="#2454C0"/></mask><g mask="url(#ase)"><path fill="url(#asf)" d="M-244.556-1.867h375.984V53.04h-375.984z"/></g><defs><linearGradient id="asb" x1="-321.393" y1="-1.867" x2="54.591" y2="-1.867" gradientUnits="userSpaceOnUse"><stop stop-color="#003566"/><stop offset=".226" stop-color="#003566"/><stop offset=".563" stop-color="#2C84D5"/><stop offset=".872" stop-color="#003566"/><stop offset="1" stop-color="#003566"/></linearGradient><linearGradient id="asd" x1="-321.393" y1="14.858" x2="54.591" y2="14.858" gradientUnits="userSpaceOnUse"><stop stop-color="#0087D2"/><stop offset=".25" stop-color="#0087D2"/><stop offset=".464" stop-color="#79CFFF"/><stop offset=".755" stop-color="#0087D2"/><stop offset="1" stop-color="#0087D2"/></linearGradient><linearGradient id="asf" x1="-244.556" y1="14.858" x2="131.429" y2="14.858" gradientUnits="userSpaceOnUse"><stop stop-color="#01C2FF"/><stop offset=".25" stop-color="#01C2FF"/><stop offset=".464" stop-color="#7ADEFE"/><stop offset=".755" stop-color="#01C2FF"/><stop offset="1" stop-color="#01C2FF"/></linearGradient></defs></svg><svg fill="none" viewBox="0 0 32 32" id="pagination1" xmlns="http://www.w3.org/2000/svg"><path d="M30.171 16c0 7.827-6.345 14.171-14.171 14.171-7.827 0-14.172-6.344-14.172-14.171C1.828 8.173 8.173 1.829 16 1.829 23.826 1.829 30.17 8.173 30.17 16Z" fill="#01C2FF" stroke="#01C2FF" stroke-width="1.114"/><path d="M14.252 13.328v-.835c1.21-.166 2.292-.437 3.244-.813l.147.147V22h-1.546v-8.672h-1.846Z" fill="#fff"/></svg><svg fill="none" viewBox="0 0 32 32" id="pagination2" xmlns="http://www.w3.org/2000/svg"><path d="M30.171 16c0 7.827-6.345 14.171-14.171 14.171-7.827 0-14.172-6.344-14.172-14.171C1.828 8.173 8.173 1.829 16 1.829 23.826 1.829 30.17 8.173 30.17 16Z" stroke="#01C2FF" stroke-width="1.114"/><path d="M19.627 14.214c0 .376-.063.747-.19 1.114-.127.361-.29.693-.49.996a9.195 9.195 0 0 1-.8 1.018c-.331.376-.653.718-.966 1.025-.312.303-.703.691-1.172 1.165-.469.473-.883.91-1.245 1.31h4.937V22H13.19v-1.201c.458-.567.964-1.143 1.516-1.729a75.418 75.418 0 0 1 1.355-1.42c.351-.362.688-.733 1.01-1.114.323-.386.56-.754.71-1.106a2.82 2.82 0 0 0 .228-1.113c0-.503-.15-.879-.447-1.128-.298-.254-.779-.38-1.443-.38-.288 0-.571.024-.85.072a4.128 4.128 0 0 0-.688.176 6.483 6.483 0 0 0-.498.205 2.173 2.173 0 0 0-.322.176l-.103.073-.344-.96a1.39 1.39 0 0 1 .11-.095 4.231 4.231 0 0 1 .945-.483c.215-.078.503-.149.864-.212a6.606 6.606 0 0 1 1.142-.095c1.075 0 1.885.22 2.432.659.547.44.82 1.069.82 1.89Z" fill="#01C2FF"/></svg><svg fill="none" viewBox="0 0 32 32" id="pagination3" xmlns="http://www.w3.org/2000/svg"><path d="M30.171 16c0 7.827-6.345 14.171-14.171 14.171-7.827 0-14.172-6.344-14.172-14.171C1.828 8.173 8.173 1.829 16 1.829 23.826 1.829 30.17 8.173 30.17 16Z" stroke="#01C2FF" stroke-width="1.114"/><path d="M19.745 19.048c0 1.011-.342 1.778-1.026 2.3-.678.523-1.601.784-2.768.784-.352 0-.694-.025-1.026-.073a5.589 5.589 0 0 1-.82-.176 9.012 9.012 0 0 1-.579-.213 3.113 3.113 0 0 1-.366-.183l-.117-.073.271-.886c.068.039.168.088.3.146.132.059.41.137.835.235.425.097.862.146 1.311.146.801 0 1.385-.161 1.75-.483.372-.327.557-.83.557-1.509 0-.664-.16-1.155-.483-1.472-.317-.322-.81-.484-1.48-.484h-.783l-.147-.146v-.842l2.476-3.164h-4.233v-1.158h5.88v1.026l-2.702 3.281v.102c2.1.22 3.15 1.168 3.15 2.842Z" fill="#01C2FF"/></svg><svg fill="none" viewBox="0 0 32 32" id="pagination30" xmlns="http://www.w3.org/2000/svg"><path d="M30.171 16c0 7.827-6.345 14.171-14.171 14.171-7.827 0-14.172-6.344-14.172-14.171C1.828 8.173 8.173 1.829 16 1.829 23.826 1.829 30.17 8.173 30.17 16Z" stroke="#01C2FF" stroke-width="1.114"/><path d="M15.387 19.048c0 1.011-.342 1.778-1.026 2.3-.678.523-1.601.784-2.768.784-.352 0-.694-.025-1.026-.073a5.59 5.59 0 0 1-.82-.176 9.008 9.008 0 0 1-.579-.213 3.113 3.113 0 0 1-.366-.183l-.117-.073.271-.886c.068.039.169.088.3.146.132.059.41.137.835.235.425.097.862.146 1.311.146.801 0 1.385-.161 1.75-.483.372-.327.558-.83.558-1.509 0-.664-.162-1.155-.484-1.472-.317-.322-.81-.484-1.48-.484h-.783l-.147-.146v-.842l2.476-3.164H9.059v-1.158h5.88v1.026l-2.702 3.281v.102c2.1.22 3.15 1.168 3.15 2.842Zm1.56-2.16c0-1.626.332-2.903.996-3.83.669-.929 1.553-1.393 2.651-1.393 1.094 0 1.973.467 2.637 1.4.664.927.996 2.207.996 3.837 0 1.631-.332 2.91-.996 3.838-.664.928-1.543 1.392-2.637 1.392-1.098 0-1.982-.464-2.651-1.392-.664-.932-.996-2.217-.996-3.852Zm1.684.014c0 1.367.169 2.39.506 3.07.337.673.822 1.01 1.457 1.01 1.309 0 1.963-1.355 1.963-4.065 0-2.73-.65-4.094-1.948-4.094-1.319 0-1.978 1.36-1.978 4.08Z" fill="#01C2FF"/></svg><svg fill="none" viewBox="0 0 32 32" id="pagination4" xmlns="http://www.w3.org/2000/svg"><path d="M30.171 16c0 7.827-6.345 14.171-14.171 14.171-7.827 0-14.172-6.344-14.172-14.171C1.828 8.173 8.173 1.829 16 1.829 23.826 1.829 30.17 8.173 30.17 16Z" stroke="#01C2FF" stroke-width="1.114"/><path d="M18.895 11.797v6.951h1.318v1.106h-1.289V22h-1.53v-2.117h-4.695v-.644l4.467-7.442h1.729Zm-4.578 6.936h3.135v-5.295l-3.135 5.295Z" fill="#01C2FF"/></svg><svg fill="none" viewBox="0 0 32 32" id="pagination5" xmlns="http://www.w3.org/2000/svg"><path d="M30.171 16c0 7.827-6.345 14.171-14.171 14.171-7.827 0-14.172-6.344-14.172-14.171C1.828 8.173 8.173 1.829 16 1.829 23.826 1.829 30.17 8.173 30.17 16Z" stroke="#01C2FF" stroke-width="1.114"/><path d="M19.686 18.968c0 1.05-.33 1.84-.989 2.373-.654.527-1.57.79-2.746.79-.357 0-.701-.024-1.033-.072a5.574 5.574 0 0 1-.828-.176 9.012 9.012 0 0 1-.578-.213 3.113 3.113 0 0 1-.367-.183l-.11-.073.338-.974.102.066c.044.024.142.07.293.139.151.064.31.12.476.169.171.048.386.095.645.139.263.039.532.058.805.058 1.538 0 2.307-.666 2.307-2 0-.785-.258-1.345-.776-1.677-.518-.332-1.377-.498-2.578-.498h-.916l-.153-.146.57-4.893h4.908v1.158h-3.794l-.366 2.849c.474.01.898.036 1.274.08.381.04.76.103 1.136.19.38.089.708.21.981.367.278.151.525.34.74.564.22.225.383.503.49.835.113.332.169.708.169 1.128Z" fill="#01C2FF"/></svg><svg fill="none" viewBox="0 0 32 32" id="pagination6" xmlns="http://www.w3.org/2000/svg"><path d="M30.171 16c0 7.827-6.345 14.171-14.171 14.171-7.827 0-14.172-6.344-14.172-14.171C1.828 8.173 8.173 1.829 16 1.829 23.826 1.829 30.17 8.173 30.17 16Z" stroke="#01C2FF" stroke-width="1.114"/><path d="M12.098 21.114c0-.298.09-.54.271-.725a.971.971 0 0 1 .718-.279.962.962 0 0 1 .996 1.004.958.958 0 0 1-.286.717.976.976 0 0 1-.71.271c-.293 0-.532-.09-.718-.27-.18-.186-.27-.425-.27-.718Zm3.413 0c0-.298.09-.54.271-.725a.971.971 0 0 1 .718-.279.962.962 0 0 1 .996 1.004.958.958 0 0 1-.286.717.976.976 0 0 1-.71.271c-.293 0-.532-.09-.718-.27-.18-.186-.27-.425-.27-.718Zm3.413 0c0-.298.09-.54.271-.725a.971.971 0 0 1 .718-.279.962.962 0 0 1 .996 1.004.958.958 0 0 1-.285.717.976.976 0 0 1-.71.271c-.294 0-.533-.09-.719-.27-.18-.186-.27-.425-.27-.718Z" fill="#01C2FF"/></svg><svg fill="none" viewBox="0 0 19 19" id="pencil" xmlns="http://www.w3.org/2000/svg"><path d="m1 14-.53-.53-.22.22V14H1ZM14 1l.53-.53a.75.75 0 0 0-1.06 0L14 1Zm4 4 .53.53a.75.75 0 0 0 0-1.06L18 5ZM5 18v.75h.31l.22-.22L5 18Zm-4 0H.25c0 .414.336.75.75.75V18Zm.53-3.47 13-13L13.47.47l-13 13 1.06 1.06Zm11.94-13 4 4 1.06-1.06-4-4-1.06 1.06Zm4 2.94-13 13 1.06 1.06 13-13-1.06-1.06ZM5 17.25H1v1.5h4v-1.5ZM1.75 18v-4H.25v4h1.5Zm8.72-13.47 4 4 1.06-1.06-4-4-1.06 1.06Z" fill="#fff"/></svg><svg fill="none" viewBox="0 0 22 20" id="person" xmlns="http://www.w3.org/2000/svg"><path d="M16.75 19a.75.75 0 0 0 1.5 0h-1.5Zm-16 0a.75.75 0 0 0 1.5 0H.75Zm18.5-8a.75.75 0 0 0-1.5 0h1.5Zm-1.5.01a.75.75 0 0 0 1.5 0h-1.5Zm0-2.01a.75.75 0 0 0 1.5 0h-1.5Zm-1.977-3.625a.75.75 0 0 0 1.454.367l-1.454-.367ZM5.5 13.75h8v-1.5h-8v1.5ZM16.75 17v2h1.5v-2h-1.5Zm-14.5 2v-2H.75v2h1.5Zm11.25-5.25A3.25 3.25 0 0 1 16.75 17h1.5a4.75 4.75 0 0 0-4.75-4.75v1.5Zm-8-1.5A4.75 4.75 0 0 0 .75 17h1.5a3.25 3.25 0 0 1 3.25-3.25v-1.5ZM12.75 5A3.25 3.25 0 0 1 9.5 8.25v1.5A4.75 4.75 0 0 0 14.25 5h-1.5ZM9.5 8.25A3.25 3.25 0 0 1 6.25 5h-1.5A4.75 4.75 0 0 0 9.5 9.75v-1.5ZM6.25 5A3.25 3.25 0 0 1 9.5 1.75V.25A4.75 4.75 0 0 0 4.75 5h1.5ZM9.5 1.75A3.25 3.25 0 0 1 12.75 5h1.5A4.75 4.75 0 0 0 9.5.25v1.5ZM17.75 11v.01h1.5V11h-1.5Zm2-4.922c0 .323-.159.49-.692.88-.445.324-1.308.893-1.308 2.042h1.5c0-.28.137-.425.692-.831.467-.34 1.308-.92 1.308-2.091h-1.5ZM18.5 4.75c.677 0 1.25.563 1.25 1.328h1.5c0-1.53-1.183-2.828-2.75-2.828v1.5Zm-1.273.992A1.329 1.329 0 0 1 18.5 4.75v-1.5c-1.295 0-2.419.9-2.727 2.125l1.454.367Z" fill="#0187D3"/></svg><svg fill="none" viewBox="0 0 34 35" id="private" xmlns="http://www.w3.org/2000/svg"><path d="M17 34.236a16.501 16.501 0 0 1-7.273-1.667 16.742 16.742 0 0 1-2.375-1.408l-.229-.167a16.815 16.815 0 0 1-4.94-5.785 16.484 16.484 0 0 1-1.85-7.64C.333 8.365 7.795.903 17 .903c9.205 0 16.667 7.462 16.667 16.666a16.486 16.486 0 0 1-1.849 7.637 16.817 16.817 0 0 1-4.933 5.783 16.806 16.806 0 0 1-2.47 1.5l-.133.067A16.5 16.5 0 0 1 17 34.236Zm0-8.333a6.65 6.65 0 0 0-5.928 3.611 13.357 13.357 0 0 0 11.856 0v-.008A6.645 6.645 0 0 0 17 25.903Zm0-3.334c3.61.005 6.939 1.95 8.715 5.094l.025-.022.023-.02-.028.025-.017.013a13.333 13.333 0 1 0-17.433 0A10.027 10.027 0 0 1 17 22.57Zm0-1.666a6.667 6.667 0 1 1 0-13.334 6.667 6.667 0 0 1 0 13.334Zm0-10a3.333 3.333 0 1 0 0 6.666 3.333 3.333 0 0 0 0-6.666Z" fill="#01C2FF"/></svg><svg fill="none" viewBox="0 0 40 28" id="qualification" xmlns="http://www.w3.org/2000/svg"><path fill-rule="evenodd" clip-rule="evenodd" d="M13.75 3.75a5 5 0 1 0 0 10 5 5 0 0 0 0-10ZM5 8.75a8.75 8.75 0 1 1 14.745 6.373 13.766 13.766 0 0 1 7.585 10.21 1.875 1.875 0 1 1-3.705.587 10.003 10.003 0 0 0-19.75 0 1.877 1.877 0 0 1-3.705-.59 13.768 13.768 0 0 1 7.585-10.205A8.725 8.725 0 0 1 5 8.75ZM27.5 5a1.875 1.875 0 1 0 0 3.75 3.75 3.75 0 0 1 1.665 7.11 1.875 1.875 0 0 0-1.04 1.68v.88a1.876 1.876 0 0 0 1.435 1.825c3 .723 5.405 3 6.305 5.93a1.878 1.878 0 0 0 2.345 1.25 1.874 1.874 0 0 0 1.24-2.35 12.525 12.525 0 0 0-6.4-7.53A7.5 7.5 0 0 0 27.5 5Z" fill="#01C2FF"/></svg><svg fill="none" viewBox="0 0 36 40" id="quality" xmlns="http://www.w3.org/2000/svg"><path fill-rule="evenodd" clip-rule="evenodd" d="M19.333.333a4.375 4.375 0 0 0-2.666 0l-13.125 4.2A4.375 4.375 0 0 0 .5 8.7v8.8c0 3.915.798 7.956 3.258 11.705 2.458 3.746 6.463 7.032 12.58 9.637a4.25 4.25 0 0 0 3.324 0c6.117-2.605 10.122-5.89 12.58-9.637 2.46-3.75 3.258-7.79 3.258-11.705V8.7a4.375 4.375 0 0 0-3.041-4.167L19.333.333ZM17.81 3.904a.625.625 0 0 1 .38 0l13.125 4.2a.625.625 0 0 1 .435.596v8.8c0 3.395-.687 6.665-2.643 9.648-1.96 2.986-5.303 5.854-10.914 8.244a.501.501 0 0 1-.386 0c-5.611-2.39-8.955-5.258-10.914-8.244C4.937 24.165 4.25 20.895 4.25 17.5V8.7c0-.272.176-.513.435-.596l13.125-4.2Zm8.39 11.797a1.875 1.875 0 0 0-2.65-2.652l-7.425 7.424-2.424-2.424a1.875 1.875 0 1 0-2.652 2.652l3.75 3.75c.732.732 1.92.732 2.652 0l8.75-8.75Z" fill="#01C2FF"/></svg><svg fill="none" viewBox="0 0 24 25" id="resize-horizontal-round" xmlns="http://www.w3.org/2000/svg"><path d="M4 8.302a4 4 0 0 1 4-4h8a4 4 0 0 1 4 4v8a4 4 0 0 1-4 4H8a4 4 0 0 1-4-4v-8Z" fill="#fff"/><path d="m11 15.302 3-3-3-3m-3 11h8a4 4 0 0 0 4-4v-8a4 4 0 0 0-4-4H8a4 4 0 0 0-4 4v8a4 4 0 0 0 4 4Z" stroke="#01C2FF" stroke-width="1.5" stroke-linecap="round" stroke-linejoin="round"/></svg><svg fill="none" viewBox="0 0 38 44" id="result" xmlns="http://www.w3.org/2000/svg"><path d="m30.704 10.433 3.027-3.027 2.946 2.946-3.027 3.027a18.75 18.75 0 1 1-2.946-2.946ZM19 39.667A14.585 14.585 0 0 0 29.312 14.77a14.585 14.585 0 0 0-20.624 0A14.583 14.583 0 0 0 19 39.667Zm-2.083-25h4.166v12.5h-4.166v-12.5ZM10.667.083h16.666V4.25H10.667V.083Z" fill="#01C2FF"/></svg><svg fill="none" viewBox="0 0 20 20" id="shape" xmlns="http://www.w3.org/2000/svg"><path d="M17.026 18.993c1.046.094 1.978-.77 1.974-1.807v-2.71a1.804 1.804 0 0 0-.43-1.212c-.808-.953-3.585-1.563-4.685-1.329-.858.183-1.458 1.044-2.044 1.63A14.479 14.479 0 0 1 8.543 11M6.41 8.145c.587-.586 1.45-1.185 1.633-2.04.234-1.097-.375-3.856-1.322-4.668A1.812 1.812 0 0 0 5.523 1H2.808c-1.034.001-1.895.929-1.8 1.97C1 10.903 6.482 17.35 14 18.722" stroke="#01C2FF" stroke-width="1.5" stroke-linecap="round" stroke-linejoin="round"/></svg><svg fill="none" viewBox="0 0 12 7" id="shapeMore" xmlns="http://www.w3.org/2000/svg"><path d="m1 1 5 5 5-5" stroke="#01C2FF" stroke-width="1.5" stroke-linecap="round" stroke-linejoin="round"/></svg><svg fill="none" viewBox="0 0 40 40" id="support" xmlns="http://www.w3.org/2000/svg"><path d="M21.875 12.5V1.875a1.875 1.875 0 0 0-3.75 0V12.5h-5.366a.625.625 0 0 0-.442 1.067l7.241 7.241c.244.244.64.244.884 0l7.241-7.241a.625.625 0 0 0-.442-1.067h-5.366Z" fill="#01C2FF"/><path fill-rule="evenodd" clip-rule="evenodd" d="M3.75 6.875c0-.345.28-.625.625-.625h7.5a1.875 1.875 0 0 0 0-3.75h-7.5A4.375 4.375 0 0 0 0 6.875v18.75A4.375 4.375 0 0 0 4.375 30h9.318c-.248 2.603-1.3 4.681-3.23 6.892A1.875 1.875 0 0 0 11.874 40h16.25a1.875 1.875 0 0 0 1.413-3.108c-1.93-2.211-2.983-4.29-3.23-6.892h9.317A4.375 4.375 0 0 0 40 25.625V6.875A4.375 4.375 0 0 0 35.625 2.5h-7.5a1.875 1.875 0 0 0 0 3.75h7.5c.345 0 .625.28.625.625v18.75c0 .345-.28.625-.625.625H4.375a.625.625 0 0 1-.625-.625V6.875ZM22.545 30h-5.09a14.297 14.297 0 0 1-1.912 6.25h8.914A14.297 14.297 0 0 1 22.545 30Z" fill="#01C2FF"/></svg><svg fill="none" viewBox="0 0 35 31" id="team" xmlns="http://www.w3.org/2000/svg"><path d="M12.5.57a8.333 8.333 0 1 0 0 16.666 8.333 8.333 0 0 0 0-16.667Zm-5 8.333a5 5 0 1 1 10 0 5 5 0 0 1-10 0ZM25.68 9.266a3.333 3.333 0 0 0-1.513-.363V5.569a6.667 6.667 0 1 1-3.928 12.053h-.002l1.965-2.693a3.333 3.333 0 1 0 3.479-5.663ZM30.83 30.57a6.665 6.665 0 0 0-6.663-6.664v-3.337a10.002 10.002 0 0 1 10 10H30.83ZM24.167 30.57h-3.334a8.333 8.333 0 0 0-16.666 0H.833c0-6.444 5.224-11.667 11.667-11.667s11.667 5.223 11.667 11.666Z" fill="#01C2FF"/></svg><svg fill="none" viewBox="0 0 45 45" id="telegram" xmlns="http://www.w3.org/2000/svg"><g clip-path="url(#bma)"><path d="M22.5 37.5a15 15 0 1 0 0-30 15 15 0 0 0 0 30Zm0 3.75c-10.356 0-18.75-8.394-18.75-18.75S12.144 3.75 22.5 3.75s18.75 8.394 18.75 18.75-8.394 18.75-18.75 18.75Zm-5.831-16.556-4.684-1.46c-1.012-.31-1.018-1.008.227-1.508l18.25-7.05c1.059-.432 1.659.114 1.316 1.48L28.67 30.82c-.218 1.045-.846 1.294-1.718.812l-4.783-3.54-2.23 2.153c-.228.221-.414.41-.766.457-.35.049-.64-.056-.851-.637L16.69 24.68l-.022.015v-.002Z" fill="#fff"/></g><defs><clipPath id="bma"><path fill="#fff" d="M0 0h45v45H0z"/></clipPath></defs></svg><svg fill="none" viewBox="0 0 24 24" id="telegram-color" xmlns="http://www.w3.org/2000/svg"><path d="M12 20a8 8 0 1 0 0-16.001A8 8 0 0 0 12 20Zm0 2C6.477 22 2 17.523 2 12S6.477 2 12 2s10 4.477 10 10-4.477 10-10 10Zm-3.11-8.83-2.498-.779c-.54-.165-.543-.537.121-.804l9.733-3.76c.565-.23.885.061.702.79l-1.657 7.82c-.116.557-.451.69-.916.433l-2.551-1.888-1.189 1.148c-.122.118-.221.219-.409.244-.187.026-.341-.03-.454-.34l-.87-2.871-.012.008v-.001Z" fill="#23A4E3"/></svg><svg fill="none" viewBox="0 0 42 30" id="transparency" xmlns="http://www.w3.org/2000/svg"><path d="M27.25 15a6.25 6.25 0 1 1-12.5 0 6.25 6.25 0 0 1 12.5 0Z" fill="#01C2FF"/><path d="M41.613 14.068C37.117 5.076 29.131.417 21 .417 12.868.417 4.883 5.076.386 14.068a2.083 2.083 0 0 0 0 1.864C4.883 24.924 12.868 29.583 21 29.583c8.131 0 16.117-4.659 20.613-13.651a2.083 2.083 0 0 0 0-1.864ZM21 25.417C14.815 25.417 8.496 22.04 4.603 15 8.496 7.96 14.815 4.583 21 4.583c6.185 0 12.504 3.377 16.396 10.417C33.504 22.04 27.185 25.417 21 25.417Z" fill="#01C2FF"/></svg><svg fill="none" viewBox="0 0 45 45" id="viber" xmlns="http://www.w3.org/2000/svg"><path d="M12.933 38.304c0-.541-.027-1.086.01-1.627.03-.438-.14-.637-.566-.773-2.663-.852-4.739-2.439-6.152-4.824-.983-1.66-1.561-3.462-1.824-5.35-.587-4.233-.575-8.46.345-12.65.456-2.083 1.33-3.998 2.78-5.626 1.05-1.184 2.39-1.962 3.83-2.58 2.428-1.042 5-1.504 7.626-1.744 1.912-.174 3.827-.148 5.737-.068 3.195.136 6.302.675 9.255 1.965 2.869 1.252 4.706 3.371 5.725 6.227.732 2.048 1.071 4.167 1.22 6.325.202 2.968.015 5.913-.433 8.846-.345 2.26-1.156 4.356-2.648 6.156-1.286 1.55-2.92 2.61-4.838 3.252-2.787.935-5.664 1.367-8.602 1.516-1.534.076-3.056.008-4.581-.05a.683.683 0 0 0-.605.263 410.234 410.234 0 0 1-2.832 3.21c-.342.385-.7.761-1.162 1.013-.878.476-1.78.139-2.106-.79-.309-.88-.142-1.794-.179-2.69Zm1.434 2.176c.118-.086.16-.107.194-.142 1.576-1.711 3.171-3.404 4.717-5.138.49-.548.98-.811 1.764-.779 3.45.142 6.848-.218 10.173-1.166 1.431-.408 2.714-1.053 3.78-2.086 1.503-1.462 2.29-3.28 2.632-5.28.46-2.699.632-5.416.43-8.154-.143-1.911-.44-3.79-1.139-5.59-.64-1.654-1.588-3.087-3.207-3.99-1.386-.772-2.871-1.284-4.423-1.618-3.08-.67-6.197-.77-9.329-.607-2.16.112-4.27.482-6.312 1.198-2.926 1.027-4.859 2.969-5.776 5.884a18.181 18.181 0 0 0-.81 4.652c-.125 2.714-.225 5.425.344 8.11.75 3.542 2.63 6.206 6.24 7.443.595.204.744.485.735 1.06-.034 2.036-.013 4.075-.013 6.203Z" fill="#fff"/><path d="M28.064 30.71c-.312.009-.596-.083-.878-.195-3.15-1.258-5.99-2.995-8.411-5.336-2.878-2.78-5.053-6.005-6.382-9.767-.42-1.187-.157-2.128.817-2.903.442-.352.896-.696 1.368-1.012.865-.586 1.737-.504 2.442.263.89.965 1.703 1.995 2.366 3.128.142.24.251.503.342.767.203.577.12 1.104-.37 1.527-.326.284-.662.56-.992.837-.405.347-.526.776-.411 1.29.39 1.747 1.495 3.025 2.835 4.147.799.669 1.676 1.208 2.702 1.495.532.15.96.02 1.298-.397.2-.245.393-.494.593-.737.536-.657 1.31-.87 2.073-.497 1.452.716 2.714 1.705 3.906 2.773.384.346.584.84.384 1.356-.526 1.373-1.422 2.447-2.796 3.095-.272.13-.578.18-.886.166ZM31.332 20.059c-.088.275.151.725-.264.76-.46.039-.296-.444-.317-.69-.1-1.269-.27-2.52-.832-3.681-1.395-2.874-3.734-4.43-6.972-4.697-.166-.015-.336-.006-.502-.024-.203-.023-.436-.056-.415-.325.019-.231.227-.252.418-.263.472-.03.941.04 1.404.115 4.015.657 6.98 3.776 7.365 7.74.036.36.078.718.115 1.065Z" fill="#fff"/><path d="M28.987 19.265c0 .033.003.066 0 .098-.021.222.042.527-.281.542-.333.014-.312-.293-.318-.512-.015-.56-.06-1.116-.242-1.652-.696-2.045-2.14-3.237-4.303-3.61-.248-.042-.5-.074-.744-.116-.182-.032-.33-.124-.3-.325.03-.205.203-.24.384-.225 2.624.19 4.881 1.648 5.595 4.392.118.458.16.935.24 1.405l-.031.003Z" fill="#fff"/><path d="M23.967 15.877c1.513.065 2.73 1.338 2.702 2.814-.003.18.003.397-.233.432-.296.048-.293-.207-.336-.39-.072-.305-.1-.622-.205-.912-.264-.725-.82-1.14-1.577-1.308-.13-.03-.269-.033-.396-.065-.2-.053-.49-.05-.43-.361.043-.258.297-.201.475-.21Z" fill="#fff"/></svg><svg fill="none" viewBox="0 0 21 20" id="viber-color" xmlns="http://www.w3.org/2000/svg"><path d="M5.585 18.105c0-.278-.014-.557.004-.835.016-.224-.072-.326-.293-.396-1.38-.437-2.454-1.25-3.186-2.474a7.259 7.259 0 0 1-.945-2.744c-.305-2.17-.298-4.338.178-6.487.237-1.068.69-2.05 1.44-2.885.545-.607 1.239-1.006 1.985-1.323C6.025.426 7.358.19 8.718.067c.99-.09 1.983-.076 2.972-.035 1.655.07 3.265.346 4.794 1.008 1.486.642 2.438 1.728 2.966 3.193.38 1.05.555 2.137.631 3.243.105 1.523.008 3.033-.224 4.537-.178 1.16-.598 2.234-1.371 3.157-.666.795-1.513 1.338-2.506 1.667-1.444.48-2.934.702-4.457.778-.794.04-1.583.004-2.373-.026a.355.355 0 0 0-.313.135c-.486.55-.975 1.1-1.467 1.647-.177.197-.362.39-.602.519-.455.244-.922.071-1.09-.406-.16-.45-.075-.92-.093-1.38Zm.743 1.115c.06-.044.083-.054.1-.072.817-.878 1.643-1.746 2.443-2.635.254-.281.508-.416.914-.4a16.783 16.783 0 0 0 5.27-.597c.741-.21 1.406-.54 1.958-1.07.779-.75 1.186-1.682 1.363-2.708.238-1.384.328-2.777.223-4.181-.074-.98-.227-1.945-.59-2.867-.332-.849-.823-1.583-1.661-2.046a8.277 8.277 0 0 0-2.292-.83c-1.595-.343-3.21-.395-4.832-.312a11.75 11.75 0 0 0-3.27.615C4.44 2.644 3.438 3.64 2.963 5.134a9.24 9.24 0 0 0-.42 2.386c-.064 1.392-.116 2.782.179 4.159.389 1.816 1.362 3.182 3.232 3.817.309.105.386.249.38.543-.016 1.044-.005 2.09-.005 3.181Z" fill="#864CB2"/><path d="M13.423 14.21a1.139 1.139 0 0 1-.455-.1c-1.632-.645-3.103-1.536-4.357-2.736-1.491-1.426-2.618-3.08-3.306-5.009-.218-.608-.082-1.091.423-1.489.229-.18.464-.356.709-.519.448-.3.9-.258 1.265.135.46.495.882 1.023 1.225 1.605.074.122.13.258.177.393.105.296.063.566-.19.783-.17.145-.344.287-.515.43-.21.177-.273.397-.213.661.202.895.774 1.551 1.469 2.126.413.343.868.62 1.4.767.275.077.496.01.672-.204.103-.126.203-.253.307-.378.277-.336.678-.446 1.073-.255.753.368 1.407.875 2.024 1.423.2.177.303.43.2.695-.274.704-.738 1.255-1.45 1.587a.966.966 0 0 1-.458.085ZM15.115 8.748c-.045.141.079.372-.136.39-.238.02-.154-.228-.165-.354-.051-.65-.14-1.293-.43-1.888-.723-1.473-1.935-2.272-3.612-2.408-.086-.008-.174-.003-.26-.012-.105-.013-.226-.03-.215-.167.01-.119.118-.13.216-.135.245-.016.488.02.728.059 2.08.337 3.616 1.936 3.815 3.969.019.185.04.368.06.546Z" fill="#864CB2"/><path d="M13.9 8.341c0 .017.002.034 0 .05-.01.114.023.27-.145.278-.173.008-.162-.15-.165-.262-.008-.287-.031-.573-.125-.847-.36-1.05-1.108-1.66-2.229-1.852-.128-.021-.259-.038-.386-.06-.093-.016-.17-.063-.155-.166.016-.105.105-.123.2-.115 1.358.097 2.528.845 2.898 2.252.06.235.083.48.123.72l-.015.002Z" fill="#864CB2"/><path d="M11.3 6.603c.784.034 1.414.686 1.4 1.444-.001.092.002.203-.12.221-.154.025-.153-.106-.175-.2-.037-.156-.051-.319-.106-.467-.136-.372-.425-.585-.817-.671-.067-.015-.14-.017-.205-.034-.103-.027-.254-.025-.223-.185.022-.132.154-.103.246-.108Z" fill="#864CB2"/></svg><svg fill="none" viewBox="0 0 40 41" id="wallet1" xmlns="http://www.w3.org/2000/svg"><path d="M15.563 8.042H5a2.494 2.494 0 0 0-2.5 2.5v22.5c0 1.386 1.115 2.5 2.5 2.5h30c1.385 0 2.5-1.114 2.5-2.5V14.71c0-1.385-1.115-2.5-2.5-2.5H5.833" stroke="#01C2FF" stroke-width="2" stroke-miterlimit="10"/><path d="M34.167 12.21v-1.668c0-1.385-1.115-2.5-2.5-2.5l-5.98.01M37.5 19.71H26.667a4.166 4.166 0 0 0-4.167 4.166 4.166 4.166 0 0 0 4.167 4.167H37.5" stroke="#01C2FF" stroke-width="2" stroke-miterlimit="10"/><path d="M27.5 23.043h-1.666v1.666h1.667v-1.666Z" fill="#000"/><path d="m28.146 12.21-5.021-8.48L8.25 12.21" stroke="#01C2FF" stroke-width="2" stroke-miterlimit="10"/></svg><svg fill="none" viewBox="0 0 41 41" id="wallet2" xmlns="http://www.w3.org/2000/svg"><path d="M16.063 8.042H5.5a2.494 2.494 0 0 0-2.5 2.5v22.5c0 1.386 1.115 2.5 2.5 2.5h30c1.385 0 2.5-1.114 2.5-2.5V14.71c0-1.385-1.115-2.5-2.5-2.5H6.333" stroke="#04C29A" stroke-width="2" stroke-miterlimit="10"/><path d="M34.667 12.21v-1.668c0-1.385-1.115-2.5-2.5-2.5l-5.98.01M38 19.71H27.167A4.166 4.166 0 0 0 23 23.875a4.166 4.166 0 0 0 4.167 4.167H38" stroke="#04C29A" stroke-width="2" stroke-miterlimit="10"/><path d="M28 23.043h-1.666v1.666h1.667v-1.666Z" fill="#000"/><path d="m28.646 12.21-5.021-8.48L8.75 12.21" stroke="#04C29A" stroke-width="2" stroke-miterlimit="10"/></svg><svg fill="none" viewBox="0 0 40 41" id="wallet3" xmlns="http://www.w3.org/2000/svg"><path d="M15.563 8.042H5a2.494 2.494 0 0 0-2.5 2.5v22.5c0 1.386 1.115 2.5 2.5 2.5h30c1.385 0 2.5-1.114 2.5-2.5V14.71c0-1.385-1.115-2.5-2.5-2.5H5.833" stroke="#FF8A01" stroke-width="2" stroke-miterlimit="10"/><path d="M34.167 12.21v-1.668c0-1.385-1.115-2.5-2.5-2.5l-5.98.01M37.5 19.71H26.667a4.166 4.166 0 0 0-4.167 4.166 4.166 4.166 0 0 0 4.167 4.167H37.5" stroke="#FF8A01" stroke-width="2" stroke-miterlimit="10"/><path d="M27.5 23.043h-1.666v1.666h1.667v-1.666Z" fill="#000"/><path d="m28.146 12.21-5.021-8.48L8.25 12.21" stroke="#FF8A01" stroke-width="2" stroke-miterlimit="10"/></svg><svg fill="none" viewBox="0 0 41 41" id="wallet4" xmlns="http://www.w3.org/2000/svg"><path d="M16.063 8.042H5.5a2.494 2.494 0 0 0-2.5 2.5v22.5c0 1.386 1.115 2.5 2.5 2.5h30c1.385 0 2.5-1.114 2.5-2.5V14.71c0-1.385-1.115-2.5-2.5-2.5H6.333" stroke="#E51A4B" stroke-width="2" stroke-miterlimit="10"/><path d="M34.667 12.21v-1.668c0-1.385-1.115-2.5-2.5-2.5l-5.98.01M38 19.71H27.167A4.166 4.166 0 0 0 23 23.875a4.166 4.166 0 0 0 4.167 4.167H38" stroke="#E51A4B" stroke-width="2" stroke-miterlimit="10"/><path d="M28 23.043h-1.666v1.666h1.667v-1.666Z" fill="#000"/><path d="m28.646 12.21-5.021-8.48L8.75 12.21" stroke="#E51A4B" stroke-width="2" stroke-miterlimit="10"/></svg><svg fill="none" viewBox="0 0 20 20" id="warning" xmlns="http://www.w3.org/2000/svg"><path d="M10 20C4.477 20 0 15.523 0 10S4.477 0 10 0s10 4.477 10 10c-.006 5.52-4.48 9.994-10 10Zm-1-7v2h2v-2H9Zm0-8v6h2V5H9Z" fill="#01C2FF"/></svg><svg fill="none" viewBox="0 0 45 45" id="whatsapp" xmlns="http://www.w3.org/2000/svg"><g clip-path="url(#bva)"><path d="m13.6 34.676 1.357.793A14.911 14.911 0 0 0 22.5 37.5a15 15 0 1 0-15-15c0 2.692.707 5.274 2.032 7.545l.792 1.357-1.225 4.502 4.5-1.228ZM3.756 41.25l2.535-9.315A18.664 18.664 0 0 1 3.75 22.5c0-10.356 8.394-18.75 18.75-18.75s18.75 8.394 18.75 18.75-8.394 18.75-18.75 18.75a18.664 18.664 0 0 1-9.431-2.54l-9.312 2.54Zm11.976-27.547a6.33 6.33 0 0 1 .756-.008c.101.008.202.019.303.03.299.034.627.216.737.467a159.387 159.387 0 0 1 1.628 3.825c.116.285.047.65-.174 1.007-.153.24-.317.473-.494.697-.212.272-.667.77-.667.77s-.186.222-.114.498c.026.105.112.257.19.384l.111.178c.48.8 1.125 1.613 1.913 2.378.225.217.444.44.68.649a11.271 11.271 0 0 0 2.944 1.875l.01.003c.159.07.24.107.472.207.116.048.236.091.358.123a.656.656 0 0 0 .688-.244c1.358-1.644 1.482-1.75 1.493-1.75v.003a.902.902 0 0 1 .709-.238.973.973 0 0 1 .332.075 207.01 207.01 0 0 0 2.625 1.166l1.09.49c.184.088.351.296.357.496.008.126.019.329-.024.7-.06.485-.207 1.068-.353 1.374-.1.209-.233.4-.394.566-.189.199-.396.38-.618.54a6.817 6.817 0 0 1-.235.17 9.403 9.403 0 0 1-.718.412 3.731 3.731 0 0 1-1.562.43c-.347.02-.694.046-1.042.027-.015 0-1.065-.163-1.065-.163a17.716 17.716 0 0 1-7.2-3.836c-.424-.373-.816-.775-1.217-1.174-1.669-1.66-2.929-3.45-3.694-5.141a6.508 6.508 0 0 1-.62-2.651 5.117 5.117 0 0 1 1.057-3.15c.137-.177.266-.36.49-.572.238-.225.388-.345.55-.428.217-.109.454-.172.696-.187l.002.002Z" fill="#fff"/></g><defs><clipPath id="bva"><path fill="#fff" d="M0 0h45v45H0z"/></clipPath></defs></svg><svg fill="none" viewBox="0 0 24 24" id="whatsup-color" xmlns="http://www.w3.org/2000/svg"><path d="m7.253 18.494.724.423A7.953 7.953 0 0 0 12 20a8 8 0 1 0-6.916-3.976l.422.724-.653 2.401 2.4-.655ZM2.004 22l1.352-4.968A9.954 9.954 0 0 1 2 12C2 6.477 6.477 2 12 2s10 4.477 10 10-4.477 10-10 10a9.953 9.953 0 0 1-5.03-1.355L2.004 22ZM8.391 7.308c.134-.01.269-.01.403-.004.054.004.108.01.162.016.159.018.334.115.393.249.298.676.588 1.357.868 2.04.062.152.025.347-.093.537a4.372 4.372 0 0 1-.263.372c-.113.145-.356.411-.356.411s-.099.118-.061.265c.014.056.06.137.102.205l.059.095c.256.427.6.86 1.02 1.268.12.116.237.235.363.346.468.413.998.75 1.57 1l.005.002c.085.037.128.057.252.11.062.026.126.049.191.066a.35.35 0 0 0 .367-.13c.724-.877.79-.934.796-.934v.002a.482.482 0 0 1 .378-.127c.06.004.121.015.177.04.531.243 1.4.622 1.4.622l.582.261c.098.047.187.158.19.265.004.067.01.175-.013.373-.032.259-.11.57-.188.733a1.155 1.155 0 0 1-.21.302 2.38 2.38 0 0 1-.33.288l-.125.09a5.044 5.044 0 0 1-.383.22 1.989 1.989 0 0 1-.833.23c-.185.01-.37.024-.556.014-.008 0-.568-.087-.568-.087a9.448 9.448 0 0 1-3.84-2.046c-.226-.199-.435-.413-.649-.626-.89-.885-1.562-1.84-1.97-2.742A3.47 3.47 0 0 1 6.9 9.62a2.729 2.729 0 0 1 .564-1.68c.073-.094.142-.192.261-.305.127-.12.207-.184.294-.228a.961.961 0 0 1 .371-.1l.001.001Z" fill="#04C29A"/></svg></svg>