 <svg width="24" height="25" viewBox="0 0 24 25" fill="none" xmlns="http://www.w3.org/2000/svg">
<path d="M4 8.302C4 6.09286 5.79086 4.302 8 4.302H16C18.2091 4.302 20 6.09286 20 8.302V16.302C20 18.5111 18.2091 20.302 16 20.302H8C5.79086 20.302 4 18.5111 4 16.302V8.302Z" fill="white"/>
<path d="M11 15.302L14 12.302L11 9.302M8 20.302H16C18.2091 20.302 20 18.5111 20 16.302V8.302C20 6.09286 18.2091 4.302 16 4.302H8C5.79086 4.302 4 6.09286 4 8.302V16.302C4 18.5111 5.79086 20.302 8 20.302Z" stroke="#01C2FF" stroke-width="1.5" stroke-linecap="round" stroke-linejoin="round"/>
</svg>
