<svg width="10" height="157" viewBox="0 0 10 157" fill="none" xmlns="http://www.w3.org/2000/svg">
<path d="M0.84375 2.59375V1.5918C2.29688 1.39258 3.59473 1.06738 4.7373 0.616211L4.91309 0.791992V13H3.05859V2.59375H0.84375ZM8.62207 51.6572C8.62207 52.1084 8.5459 52.5537 8.39355 52.9932C8.24121 53.4268 8.04492 53.8252 7.80469 54.1885C7.57031 54.5459 7.25098 54.9531 6.84668 55.4102C6.44824 55.8613 6.06152 56.2715 5.68652 56.6406C5.31152 57.0039 4.84277 57.4697 4.28027 58.0381C3.71777 58.6064 3.21973 59.1309 2.78613 59.6113H8.70996V61H0.896484V59.5586C1.44727 58.8789 2.05371 58.1875 2.71582 57.4844C3.37793 56.7754 3.91992 56.207 4.3418 55.7793C4.76367 55.3457 5.16797 54.9004 5.55469 54.4434C5.94141 53.9805 6.22559 53.5381 6.40723 53.1162C6.58887 52.6885 6.67969 52.2432 6.67969 51.7803C6.67969 51.1768 6.50098 50.7256 6.14355 50.4268C5.78613 50.1221 5.20898 49.9697 4.41211 49.9697C4.06641 49.9697 3.72656 49.999 3.39258 50.0576C3.06445 50.1162 2.78906 50.1865 2.56641 50.2686C2.34375 50.3506 2.14453 50.4326 1.96875 50.5146C1.79297 50.5967 1.66406 50.667 1.58203 50.7256L1.45898 50.8135L1.0459 49.6621C1.0752 49.6328 1.11914 49.5947 1.17773 49.5479C1.23633 49.501 1.37402 49.416 1.59082 49.293C1.81348 49.1699 2.05371 49.0615 2.31152 48.9678C2.56934 48.874 2.91504 48.7891 3.34863 48.7129C3.78223 48.6367 4.23926 48.5986 4.71973 48.5986C6.00879 48.5986 6.98145 48.8623 7.6377 49.3896C8.29395 49.917 8.62207 50.6729 8.62207 51.6572ZM8.79785 105.458C8.79785 106.671 8.3877 107.591 7.56738 108.218C6.75293 108.845 5.64551 109.158 4.24512 109.158C3.82324 109.158 3.41309 109.129 3.01465 109.07C2.62207 109.012 2.29395 108.941 2.03027 108.859C1.7666 108.771 1.53516 108.687 1.33594 108.604C1.13672 108.517 0.990234 108.443 0.896484 108.385L0.755859 108.297L1.08105 107.233C1.16309 107.28 1.2832 107.339 1.44141 107.409C1.59961 107.479 1.93359 107.573 2.44336 107.69C2.95312 107.808 3.47754 107.866 4.0166 107.866C4.97754 107.866 5.67773 107.673 6.11719 107.286C6.5625 106.894 6.78516 106.29 6.78516 105.476C6.78516 104.679 6.5918 104.09 6.20508 103.709C5.82422 103.322 5.23242 103.129 4.42969 103.129H3.48926L3.31348 102.953V101.942L6.28418 98.1455H1.2041V96.7568H8.26172V97.9873L5.01855 101.925V102.048C7.53809 102.312 8.79785 103.448 8.79785 105.458ZM8.13867 144.757V153.098H9.7207V154.425H8.17383V157H6.33691V154.46H0.703125V153.687L6.06445 144.757H8.13867ZM2.64551 153.08H6.40723V146.726L2.64551 153.08Z" fill="#01C2FF"/>
</svg>
